<?xml version="1.0" encoding="UTF-8"?>
<svg id="Layer_1" data-name="Layer 1" xmlns="http://www.w3.org/2000/svg" viewBox="0 0 370 110">
  <rect width="370" height="110" rx="20" ry="20" fill="rgba(255, 255, 255, .8)"/>
  <rect x="26" y="30" width="50" height="50" rx="8" ry="8" fill="#ff6129"/>
  <g>
    <path d="M49.673,42.602c.137-.733.842-1.216,1.575-1.079.548.102.977.531,1.079,1.079l1.418,7.501c.206,1.091,1.06,1.945,2.151,2.151l7.501,1.418c.733.137,1.216.842,1.079,1.575-.102.548-.531.977-1.079,1.079l-7.501,1.418c-1.091.206-1.945,1.06-2.151,2.151l-1.418,7.501c-.137.733-.842,1.216-1.575,1.079-.548-.102-.977-.531-1.079-1.079l-1.418-7.501c-.206-1.091-1.06-1.945-2.151-2.151l-7.501-1.418c-.733-.137-1.216-.842-1.079-1.575.102-.548.531-.977,1.079-1.079l7.501-1.418c1.091-.206,1.945-1.06,2.151-2.151l1.418-7.501Z" fill="none" stroke="#fbffdf" stroke-linecap="round" stroke-linejoin="round" stroke-width="2"/>
    <path d="M61.797,41.503v5.399" fill="none" stroke="#fbffdf" stroke-linecap="round" stroke-linejoin="round" stroke-width="2"/>
    <path d="M64.497,44.203h-5.399" fill="none" stroke="#fbffdf" stroke-linecap="round" stroke-linejoin="round" stroke-width="2"/>
    <circle cx="40.203" cy="65.797" r="2.699" fill="none" stroke="#fbffdf" stroke-linecap="round" stroke-linejoin="round" stroke-width="2"/>
  </g>
  <g>
    <text transform="translate(97.229 47.641)" fill="#21506c" font-family="Poppins-SemiBold, Poppins" font-size="21" font-weight="600"><tspan x="0" y="0">Ayo Mulai Belajar!</tspan></text>
    <text transform="translate(97.23 73.899)" fill="#21506c" font-family="Poppins-Medium, Poppins" font-size="18" font-weight="500"><tspan x="0" y="0">Pilih kelas terbaikmu di sini</tspan></text>
  </g>
</svg>