<!-- isi LOGO ASSAHRA V2.0.svg di sini -->
  <svg xmlns="http://www.w3.org/2000/svg" viewBox="0 0 823 300">
  <!-- Logo Awan dan Matahari -->
  <path fill="#4cafe6" d="M194.67 257.69c-1.65.98-2.88 2.84-3.96 4.51-10.08 15.71-32.19 16.18-45.93 4.11-1.87-1.34-3.72-1.92-5.87-1.14-.98.33-2.02.92-2.96 1.47a59.73 59.73 0 0 1-24.67 8.01c-28.61 3.01-57.05-13.8-64.2-42.61-1.24-2.42-4.06-2.59-6.62-2.28-15.64 2.8-28.42-3.87-34.55-14.53-13.34-21.59-2.85-57.18 30.05-56.96 1.8-.21 3.34-.68 4.44-1.61 1.11-.92 1.79-2.3 2.28-3.9 12.82-51.12 89.95-56 117.7-14.12 2.41 3.74 5.03 3.35 8.43 1.28 13.6-7.8 29.93-5.31 40.08 6.47 1.24 1.42 2.65 2.87 4.42 3.47 1.54.56 3.38.52 5.37.19 46.18-11.38 63.07 59.4 18.4 74.02-2.46.77-5.39 1.81-6.81 3.74-1.09 1.35-1.6 3.16-2.01 4.87-3.17 13.64-13.77 22.75-27.8 23.59-1.94.13-4.08.35-5.68 1.34l-.11.07Z"/>
  <path fill="#79c3ec" d="M114.69 110.73c18.1 2.17 35.66 12.18 45.66 27.52 1.1 1.73 2.57 3.64 4.74 2.95 4.07-1.71 7.77-4.78 12.26-5.38 5.05-.58 10.32-1.38 15.34-.24 5.74 1.47 10.77 4.77 14.91 8.99 1.91 1.71 3.3 4.39 5.71 5.3 1.86.49 3.93-.36 5.82-.77 2.57-.71 4.71-.86 7.63-.67 3.09.21 6.3.26 9.29.93 4.67 1.16 9.07 3.55 12.97 6.45 3.7 2.79 5.97 6.98 7.6 11.33 6.27 21.09-11.93 44.05-33.79 41.63-1.9-.19-4.12-.27-5.59.77-1.1.69-1.98 1.94-2.74 3.08-5.89 9.06-16.61 13.3-27.39 12.44-2.97-.39-5.52.64-7.01 3.34-10.46 19.77-37.69 21.93-52.55 5.64-2.05-1.91-4.08-1.77-6.37-.27-24.72 17.58-58.79 6.72-68.36-22.12-1.27-3.76-3.61-3.74-6.9-2.57-21.05 6.62-44.1-11.43-39.79-33.33.56-2.87 2.36-5.51 4.37-7.61 3.68-3.71 7.6-6.16 13.31-8.19 4.73-1.67 8.86-1.54 11.91-1.68 3.49-.15 5.15-1.63 6.28-5.67 5.49-19.53 21.68-34.17 40.77-39.36 10.43-2.84 21.07-3.15 31.77-2.52h.14Z"/>
  <g fill="#F48C06">
    <!-- Sinar dan detail matahari -->
    <path d="M102.37 101.71c-.52-1.14 1.78-3.79 3.01-5.03 37.91-39.84 113.04-17.26 121.25 37.76.25 1.84.21 3.49-.51 4.74-1 1.79-3.32 2.8-5.75 2.59-2.75-.14-5.02-1.58-7.06-3.32-11.29-9.78-27.38-13.46-41.56-7.98-3.61 1.52-7.11 1.8-9.79-1.43-12.93-16.19-34.14-25.52-54.87-26.01-1.52-.08-4.2-.05-4.7-1.26l-.02-.06Z"/>
    <!-- Tambahan sinar -->
    <path d="M119.02 73.35c-2.36 1.91-6.15 1.33-8.31-.5a11.54 11.54 0 0 1-2.32-2.98c-1.15-1.91-2.93-4.94-4.88-8.23l-5.14-8.68c-1.79-3.09-3.11-4.82-3.19-6.93-.05-2.49 1.26-5.45 3.59-6.51 5.32-1.46 9.07 5.71 11.64 9.42 4.15 6.84 14.1 18.74 8.69 24.33l-.09.08Z"/>
    <path d="M60.11 77.83c6.42-1.18 16.54 7.29 21.84 10.87 2.41 1.96 5.13 3.2 7.08 5.32 2.2 2.36 2.87 6.35.22 8.51-1.66 1.45-4.46 1.76-6.64 1.22-2.21-2.41-4.83-3.84-7.85-5.58-6.54-4.09-25.77-11.54-14.73-20.28l.07-.04Z"/>
    <path d="M153.97 25.31c4.51-1.09 7.3.68 7.59 5.29.47 6.94 1.05 23.57-.39 30.39-1.86 5.52-10.95 3.73-10.96-2.15.27-4.56-3.58-32.28 3.64-33.52l.12-.02Z"/>
    <path d="M210.67 39.63c4.68-1.25 8.43 4.55 6.32 8.53-3.25 6.15-8.62 14.99-11.58 20.27-1.05 1.79-2.04 3.62-3.82 4.77-2.96 2.11-7.91 1.34-8.83-2.7-.68-2.82.94-5.71 2.3-8.16 4.55-7.31 7.28-19.61 15.47-22.68l.13-.03Z"/>
    <path d="M251 77.5c2.62-.2 5.59 2.05 5.92 4.77 1.02 7.15-13.39 12.78-20.81 18.29-2.59 1.91-5.71 4.18-9.05 3.17-3.89-1.04-4.31-6.42-2.25-9.25 1.26-1.89 5.23-3.97 7.83-5.79l11.58-7.57c2.45-1.54 4.87-3.45 6.68-3.6h.1Z"/>
    <path d="M271.64 133.32c2.73 3.46-.35 8.44-4.43 8.81-5.45.67-11.98.45-18.21.43-3.32-.11-5.83-.04-7.91-1.01-2.35-1.05-3.86-3.88-2.97-6.38 2.04-4.97 7.87-4.31 12.6-4.69 5.42-.08 17.19-1.21 20.85 2.75l.08.09Z"/>
  </g>

  <!-- Teks -->
  <g font-family="FuturaBT-Bold, 'Futura Md BT'" font-weight="700">
    <!-- GLOBAL ACADEMY with outline -->
    <text
      fill="#F48C06"
      font-size="56.22"
      font-family="FuturaBT-Bold, 'Futura Md BT'"
      font-weight="900"
      transform="translate(287.61 261.69)">
      <tspan x="0" y="0" letter-spacing="0em">G</tspan>
      <tspan x="47.49" y="0" letter-spacing="-.02em">L</tspan>
      <tspan x="76.54" y="0" letter-spacing="0em">OBAL </tspan>
      <tspan x="251.46" y="0" letter-spacing="-.02em">A</tspan>
      <tspan x="291.18" y="0" letter-spacing="0em">CADEMY</tspan>
    </text>

    <!-- ASSAHRA -->
    <text fill="#4cafe6" font-size="112.43" letter-spacing="0em" transform="translate(284.01 196.92)">
      <tspan x="0" y="0">ASSAHRA</tspan>
    </text>
  </g>
</svg>
