<svg xmlns="http://www.w3.org/2000/svg" xmlns:xlink="http://www.w3.org/1999/xlink" width="2000" zoomAndPan="magnify" viewBox="0 0 1500 1499.999933" height="2000" preserveAspectRatio="xMidYMid meet" version="1.0"><path fill="#f5c265" d="M 668.183594 150 L 231.816406 150 C 230.480469 150 229.140625 150.035156 227.804688 150.101562 C 226.46875 150.167969 225.132812 150.269531 223.800781 150.402344 C 222.46875 150.535156 221.140625 150.699219 219.816406 150.898438 C 218.492188 151.09375 217.175781 151.324219 215.863281 151.585938 C 214.550781 151.847656 213.246094 152.144531 211.945312 152.46875 C 210.648438 152.796875 209.359375 153.152344 208.078125 153.542969 C 206.796875 153.933594 205.527344 154.351562 204.265625 154.804688 C 203.007812 155.257812 201.757812 155.738281 200.523438 156.25 C 199.285156 156.765625 198.0625 157.308594 196.851562 157.878906 C 195.640625 158.453125 194.449219 159.054688 193.265625 159.6875 C 192.085938 160.320312 190.921875 160.980469 189.773438 161.667969 C 188.625 162.355469 187.496094 163.074219 186.382812 163.816406 C 185.269531 164.558594 184.175781 165.332031 183.101562 166.128906 C 182.027344 166.925781 180.972656 167.75 179.9375 168.597656 C 178.902344 169.449219 177.890625 170.324219 176.898438 171.222656 C 175.90625 172.121094 174.9375 173.042969 173.988281 173.988281 C 173.042969 174.9375 172.121094 175.90625 171.222656 176.898438 C 170.324219 177.890625 169.449219 178.902344 168.597656 179.9375 C 167.75 180.972656 166.925781 182.027344 166.128906 183.101562 C 165.332031 184.175781 164.558594 185.269531 163.816406 186.382812 C 163.074219 187.496094 162.355469 188.625 161.667969 189.773438 C 160.980469 190.921875 160.320312 192.085938 159.6875 193.265625 C 159.054688 194.449219 158.453125 195.640625 157.878906 196.851562 C 157.308594 198.0625 156.765625 199.285156 156.25 200.523438 C 155.738281 201.757812 155.257812 203.007812 154.804688 204.265625 C 154.351562 205.527344 153.933594 206.796875 153.542969 208.078125 C 153.152344 209.359375 152.796875 210.648438 152.46875 211.945312 C 152.144531 213.246094 151.847656 214.550781 151.585938 215.863281 C 151.324219 217.175781 151.09375 218.492188 150.898438 219.816406 C 150.699219 221.140625 150.535156 222.46875 150.402344 223.800781 C 150.269531 225.132812 150.167969 226.46875 150.101562 227.804688 C 150.035156 229.140625 150 230.480469 150 231.816406 L 150 695.453125 C 150 696.347656 150.042969 697.238281 150.128906 698.128906 C 150.21875 699.015625 150.347656 699.898438 150.523438 700.777344 C 150.695312 701.652344 150.914062 702.515625 151.171875 703.371094 C 151.433594 704.226562 151.730469 705.066406 152.074219 705.890625 C 152.414062 706.71875 152.796875 707.523438 153.21875 708.3125 C 153.640625 709.101562 154.097656 709.867188 154.59375 710.609375 C 155.089844 711.351562 155.621094 712.066406 156.1875 712.757812 C 156.753906 713.449219 157.355469 714.109375 157.984375 714.742188 C 158.617188 715.371094 159.277344 715.972656 159.96875 716.539062 C 160.660156 717.105469 161.375 717.636719 162.121094 718.132812 C 162.863281 718.628906 163.628906 719.089844 164.414062 719.507812 C 165.203125 719.929688 166.007812 720.3125 166.835938 720.652344 C 167.660156 720.996094 168.5 721.296875 169.355469 721.554688 C 170.210938 721.8125 171.074219 722.03125 171.953125 722.203125 C 172.828125 722.378906 173.710938 722.507812 174.597656 722.597656 C 175.488281 722.683594 176.378906 722.726562 177.273438 722.726562 L 668.183594 722.726562 C 669.074219 722.726562 669.964844 722.683594 670.855469 722.597656 C 671.746094 722.507812 672.625 722.378906 673.503906 722.203125 C 674.378906 722.03125 675.246094 721.8125 676.097656 721.554688 C 676.953125 721.296875 677.792969 720.996094 678.621094 720.652344 C 679.445312 720.3125 680.25 719.929688 681.039062 719.507812 C 681.828125 719.089844 682.59375 718.628906 683.335938 718.132812 C 684.078125 717.636719 684.792969 717.105469 685.484375 716.539062 C 686.175781 715.972656 686.835938 715.371094 687.46875 714.742188 C 688.101562 714.109375 688.699219 713.449219 689.265625 712.757812 C 689.832031 712.066406 690.363281 711.351562 690.859375 710.609375 C 691.355469 709.867188 691.816406 709.101562 692.234375 708.3125 C 692.65625 707.523438 693.039062 706.71875 693.378906 705.890625 C 693.722656 705.066406 694.023438 704.226562 694.28125 703.371094 C 694.539062 702.515625 694.757812 701.652344 694.929688 700.777344 C 695.105469 699.898438 695.238281 699.015625 695.324219 698.128906 C 695.410156 697.238281 695.453125 696.347656 695.453125 695.453125 L 695.453125 177.273438 C 695.453125 176.378906 695.410156 175.488281 695.324219 174.597656 C 695.238281 173.710938 695.105469 172.828125 694.929688 171.953125 C 694.757812 171.074219 694.539062 170.210938 694.28125 169.355469 C 694.023438 168.5 693.722656 167.660156 693.378906 166.835938 C 693.039062 166.007812 692.65625 165.203125 692.234375 164.414062 C 691.816406 163.628906 691.355469 162.863281 690.859375 162.117188 C 690.363281 161.375 689.832031 160.660156 689.265625 159.96875 C 688.699219 159.277344 688.101562 158.617188 687.46875 157.984375 C 686.835938 157.355469 686.175781 156.753906 685.484375 156.1875 C 684.792969 155.621094 684.078125 155.089844 683.335938 154.59375 C 682.59375 154.097656 681.828125 153.640625 681.039062 153.21875 C 680.25 152.796875 679.445312 152.414062 678.621094 152.074219 C 677.792969 151.730469 676.953125 151.433594 676.097656 151.171875 C 675.246094 150.914062 674.378906 150.695312 673.503906 150.523438 C 672.625 150.347656 671.746094 150.21875 670.855469 150.128906 C 669.964844 150.042969 669.074219 150 668.183594 150 Z M 668.183594 150 " fill-opacity="1" fill-rule="nonzero"/><path fill="#dba749" d="M 177.273438 777.273438 C 176.378906 777.273438 175.488281 777.230469 174.597656 777.140625 C 173.710938 777.054688 172.828125 776.925781 171.953125 776.75 C 171.074219 776.574219 170.210938 776.359375 169.355469 776.101562 C 168.5 775.839844 167.660156 775.539062 166.835938 775.199219 C 166.007812 774.855469 165.203125 774.476562 164.414062 774.054688 C 163.628906 773.632812 162.863281 773.175781 162.121094 772.679688 C 161.375 772.183594 160.660156 771.652344 159.96875 771.085938 C 159.277344 770.515625 158.617188 769.917969 157.984375 769.285156 C 157.355469 768.65625 156.753906 767.992188 156.1875 767.304688 C 155.621094 766.613281 155.089844 765.894531 154.59375 765.152344 C 154.097656 764.410156 153.640625 763.644531 153.21875 762.859375 C 152.796875 762.070312 152.414062 761.261719 152.074219 760.4375 C 151.730469 759.613281 151.433594 758.773438 151.171875 757.917969 C 150.914062 757.0625 150.695312 756.195312 150.523438 755.320312 C 150.347656 754.445312 150.21875 753.5625 150.128906 752.671875 C 150.042969 751.785156 150 750.894531 150 750 L 150 259.089844 C 150 258.199219 150.042969 257.304688 150.132812 256.417969 C 150.21875 255.527344 150.351562 254.644531 150.523438 253.769531 C 150.699219 252.894531 150.914062 252.027344 151.175781 251.175781 C 151.433594 250.320312 151.734375 249.480469 152.074219 248.652344 C 152.417969 247.828125 152.800781 247.023438 153.21875 246.234375 C 153.640625 245.445312 154.101562 244.679688 154.597656 243.9375 C 155.09375 243.195312 155.625 242.480469 156.191406 241.789062 C 156.757812 241.097656 157.355469 240.4375 157.988281 239.804688 C 158.621094 239.175781 159.28125 238.574219 159.972656 238.007812 C 160.660156 237.441406 161.378906 236.910156 162.121094 236.414062 C 162.863281 235.917969 163.628906 235.460938 164.417969 235.039062 C 165.203125 234.617188 166.011719 234.234375 166.835938 233.894531 C 167.660156 233.550781 168.5 233.25 169.355469 232.992188 C 170.210938 232.734375 171.074219 232.515625 171.953125 232.34375 C 172.828125 232.167969 173.710938 232.035156 174.597656 231.949219 C 175.488281 231.863281 176.378906 231.816406 177.273438 231.816406 C 178.164062 231.816406 179.058594 231.863281 179.945312 231.949219 C 180.835938 232.035156 181.71875 232.167969 182.59375 232.34375 C 183.46875 232.515625 184.335938 232.734375 185.191406 232.992188 C 186.042969 233.25 186.882812 233.550781 187.710938 233.894531 C 188.535156 234.234375 189.339844 234.617188 190.128906 235.039062 C 190.917969 235.460938 191.683594 235.917969 192.425781 236.414062 C 193.167969 236.910156 193.882812 237.441406 194.574219 238.007812 C 195.265625 238.574219 195.925781 239.175781 196.558594 239.804688 C 197.1875 240.4375 197.789062 241.097656 198.355469 241.789062 C 198.921875 242.480469 199.453125 243.195312 199.949219 243.9375 C 200.445312 244.679688 200.902344 245.445312 201.324219 246.234375 C 201.746094 247.023438 202.128906 247.828125 202.46875 248.652344 C 202.8125 249.480469 203.113281 250.320312 203.371094 251.175781 C 203.628906 252.027344 203.847656 252.894531 204.019531 253.769531 C 204.195312 254.644531 204.328125 255.527344 204.414062 256.417969 C 204.5 257.304688 204.546875 258.199219 204.546875 259.089844 L 204.546875 750 C 204.546875 750.894531 204.503906 751.785156 204.414062 752.671875 C 204.328125 753.5625 204.195312 754.445312 204.023438 755.320312 C 203.847656 756.195312 203.632812 757.0625 203.371094 757.917969 C 203.113281 758.773438 202.8125 759.613281 202.472656 760.4375 C 202.128906 761.261719 201.75 762.070312 201.328125 762.859375 C 200.90625 763.644531 200.449219 764.410156 199.953125 765.152344 C 199.457031 765.894531 198.921875 766.613281 198.355469 767.304688 C 197.789062 767.992188 197.191406 768.65625 196.558594 769.285156 C 195.929688 769.917969 195.265625 770.515625 194.578125 771.085938 C 193.886719 771.652344 193.167969 772.183594 192.425781 772.679688 C 191.683594 773.175781 190.917969 773.632812 190.128906 774.054688 C 189.34375 774.476562 188.535156 774.855469 187.710938 775.199219 C 186.886719 775.539062 186.046875 775.839844 185.191406 776.101562 C 184.335938 776.359375 183.46875 776.574219 182.59375 776.75 C 181.71875 776.925781 180.835938 777.054688 179.945312 777.140625 C 179.058594 777.230469 178.167969 777.273438 177.273438 777.273438 Z M 177.273438 777.273438 " fill-opacity="1" fill-rule="nonzero"/><path fill="#3781cc" d="M 1240.910156 695.453125 L 1240.910156 231.816406 C 1240.90625 230.480469 1240.875 229.140625 1240.804688 227.804688 C 1240.738281 226.46875 1240.640625 225.132812 1240.507812 223.800781 C 1240.375 222.46875 1240.210938 221.140625 1240.011719 219.816406 C 1239.8125 218.492188 1239.585938 217.175781 1239.320312 215.863281 C 1239.058594 214.550781 1238.765625 213.246094 1238.4375 211.945312 C 1238.113281 210.648438 1237.753906 209.359375 1237.367188 208.078125 C 1236.976562 206.796875 1236.554688 205.527344 1236.105469 204.265625 C 1235.652344 203.007812 1235.171875 201.757812 1234.65625 200.523438 C 1234.144531 199.285156 1233.601562 198.0625 1233.027344 196.851562 C 1232.457031 195.640625 1231.851562 194.449219 1231.222656 193.265625 C 1230.589844 192.085938 1229.929688 190.921875 1229.242188 189.773438 C 1228.550781 188.625 1227.835938 187.496094 1227.09375 186.382812 C 1226.347656 185.269531 1225.578125 184.175781 1224.78125 183.101562 C 1223.984375 182.027344 1223.160156 180.972656 1222.308594 179.9375 C 1221.460938 178.902344 1220.585938 177.890625 1219.6875 176.898438 C 1218.789062 175.90625 1217.867188 174.9375 1216.917969 173.988281 C 1215.972656 173.042969 1215.003906 172.121094 1214.011719 171.222656 C 1213.019531 170.324219 1212.007812 169.449219 1210.972656 168.597656 C 1209.9375 167.75 1208.882812 166.925781 1207.808594 166.128906 C 1206.730469 165.332031 1205.636719 164.558594 1204.527344 163.816406 C 1203.414062 163.074219 1202.28125 162.355469 1201.132812 161.667969 C 1199.988281 160.980469 1198.824219 160.320312 1197.640625 159.6875 C 1196.460938 159.054688 1195.265625 158.453125 1194.058594 157.878906 C 1192.847656 157.308594 1191.625 156.765625 1190.386719 156.25 C 1189.152344 155.738281 1187.902344 155.257812 1186.644531 154.804688 C 1185.382812 154.351562 1184.113281 153.933594 1182.832031 153.542969 C 1181.550781 153.152344 1180.261719 152.796875 1178.964844 152.46875 C 1177.664062 152.144531 1176.359375 151.847656 1175.046875 151.585938 C 1173.734375 151.324219 1172.414062 151.09375 1171.089844 150.898438 C 1169.769531 150.699219 1168.441406 150.535156 1167.109375 150.402344 C 1165.777344 150.269531 1164.441406 150.167969 1163.105469 150.101562 C 1161.765625 150.035156 1160.429688 150 1159.089844 150 L 722.726562 150 C 721.832031 150 720.941406 150.042969 720.054688 150.128906 C 719.164062 150.21875 718.28125 150.347656 717.40625 150.523438 C 716.53125 150.695312 715.664062 150.914062 714.808594 151.171875 C 713.953125 151.433594 713.113281 151.730469 712.289062 152.074219 C 711.464844 152.414062 710.65625 152.796875 709.871094 153.21875 C 709.082031 153.640625 708.316406 154.097656 707.574219 154.59375 C 706.832031 155.089844 706.113281 155.621094 705.421875 156.1875 C 704.734375 156.753906 704.070312 157.355469 703.441406 157.984375 C 702.808594 158.617188 702.210938 159.277344 701.644531 159.96875 C 701.078125 160.660156 700.542969 161.375 700.046875 162.117188 C 699.550781 162.863281 699.09375 163.628906 698.671875 164.414062 C 698.25 165.203125 697.871094 166.007812 697.527344 166.835938 C 697.1875 167.660156 696.886719 168.5 696.628906 169.355469 C 696.367188 170.210938 696.152344 171.074219 695.976562 171.953125 C 695.804688 172.828125 695.671875 173.710938 695.585938 174.597656 C 695.496094 175.488281 695.453125 176.378906 695.453125 177.273438 L 695.453125 695.453125 C 695.453125 696.347656 695.496094 697.238281 695.585938 698.128906 C 695.671875 699.015625 695.804688 699.898438 695.976562 700.777344 C 696.152344 701.652344 696.367188 702.515625 696.628906 703.371094 C 696.886719 704.226562 697.1875 705.066406 697.527344 705.890625 C 697.871094 706.71875 698.25 707.523438 698.671875 708.3125 C 699.09375 709.101562 699.550781 709.867188 700.046875 710.609375 C 700.542969 711.351562 701.078125 712.066406 701.644531 712.757812 C 702.210938 713.449219 702.808594 714.109375 703.441406 714.742188 C 704.070312 715.371094 704.734375 715.972656 705.421875 716.539062 C 706.113281 717.105469 706.832031 717.636719 707.574219 718.132812 C 708.316406 718.628906 709.082031 719.089844 709.871094 719.507812 C 710.65625 719.929688 711.464844 720.3125 712.289062 720.652344 C 713.113281 720.996094 713.953125 721.296875 714.808594 721.554688 C 715.664062 721.8125 716.53125 722.03125 717.40625 722.203125 C 718.28125 722.378906 719.164062 722.507812 720.054688 722.597656 C 720.941406 722.683594 721.832031 722.726562 722.726562 722.726562 L 1213.636719 722.726562 C 1214.53125 722.726562 1215.421875 722.683594 1216.308594 722.597656 C 1217.199219 722.507812 1218.082031 722.378906 1218.957031 722.203125 C 1219.832031 722.03125 1220.699219 721.8125 1221.554688 721.554688 C 1222.410156 721.296875 1223.25 720.996094 1224.074219 720.652344 C 1224.898438 720.3125 1225.707031 719.929688 1226.492188 719.507812 C 1227.28125 719.089844 1228.046875 718.628906 1228.789062 718.132812 C 1229.53125 717.636719 1230.25 717.105469 1230.941406 716.539062 C 1231.628906 715.972656 1232.292969 715.371094 1232.921875 714.742188 C 1233.554688 714.109375 1234.152344 713.449219 1234.722656 712.757812 C 1235.289062 712.066406 1235.820312 711.351562 1236.316406 710.609375 C 1236.8125 709.867188 1237.269531 709.101562 1237.691406 708.3125 C 1238.113281 707.523438 1238.492188 706.71875 1238.835938 705.890625 C 1239.175781 705.066406 1239.476562 704.226562 1239.734375 703.371094 C 1239.996094 702.515625 1240.210938 701.652344 1240.386719 700.777344 C 1240.558594 699.898438 1240.691406 699.015625 1240.777344 698.128906 C 1240.867188 697.238281 1240.910156 696.347656 1240.910156 695.453125 Z M 1240.910156 695.453125 " fill-opacity="1" fill-rule="nonzero"/><path fill="#dd5d65" d="M 150 722.726562 L 150 1159.089844 C 150 1160.429688 150.035156 1161.765625 150.101562 1163.105469 C 150.167969 1164.441406 150.269531 1165.777344 150.402344 1167.109375 C 150.535156 1168.441406 150.699219 1169.769531 150.898438 1171.089844 C 151.09375 1172.414062 151.324219 1173.734375 151.585938 1175.046875 C 151.847656 1176.359375 152.144531 1177.664062 152.46875 1178.964844 C 152.796875 1180.261719 153.152344 1181.550781 153.542969 1182.832031 C 153.933594 1184.113281 154.351562 1185.382812 154.804688 1186.644531 C 155.257812 1187.902344 155.738281 1189.152344 156.25 1190.386719 C 156.765625 1191.625 157.308594 1192.847656 157.878906 1194.058594 C 158.453125 1195.265625 159.054688 1196.460938 159.6875 1197.640625 C 160.320312 1198.824219 160.980469 1199.988281 161.667969 1201.132812 C 162.355469 1202.28125 163.074219 1203.414062 163.816406 1204.523438 C 164.558594 1205.636719 165.332031 1206.730469 166.128906 1207.808594 C 166.925781 1208.882812 167.75 1209.9375 168.597656 1210.972656 C 169.449219 1212.007812 170.324219 1213.019531 171.222656 1214.011719 C 172.121094 1215.003906 173.042969 1215.972656 173.988281 1216.917969 C 174.9375 1217.867188 175.90625 1218.789062 176.898438 1219.6875 C 177.890625 1220.585938 178.902344 1221.460938 179.9375 1222.308594 C 180.972656 1223.160156 182.027344 1223.984375 183.101562 1224.78125 C 184.175781 1225.578125 185.269531 1226.347656 186.382812 1227.09375 C 187.496094 1227.835938 188.625 1228.554688 189.773438 1229.242188 C 190.921875 1229.929688 192.085938 1230.589844 193.265625 1231.222656 C 194.449219 1231.851562 195.640625 1232.457031 196.851562 1233.027344 C 198.0625 1233.601562 199.285156 1234.144531 200.523438 1234.65625 C 201.757812 1235.171875 203.007812 1235.652344 204.265625 1236.105469 C 205.527344 1236.554688 206.796875 1236.976562 208.078125 1237.367188 C 209.359375 1237.753906 210.648438 1238.113281 211.945312 1238.4375 C 213.246094 1238.765625 214.550781 1239.058594 215.863281 1239.320312 C 217.175781 1239.585938 218.492188 1239.8125 219.816406 1240.011719 C 221.140625 1240.210938 222.46875 1240.375 223.800781 1240.507812 C 225.132812 1240.640625 226.46875 1240.738281 227.804688 1240.804688 C 229.140625 1240.875 230.480469 1240.90625 231.816406 1240.910156 L 668.183594 1240.910156 C 669.074219 1240.910156 669.964844 1240.867188 670.855469 1240.777344 C 671.746094 1240.691406 672.625 1240.558594 673.503906 1240.386719 C 674.378906 1240.210938 675.246094 1239.996094 676.097656 1239.734375 C 676.953125 1239.476562 677.792969 1239.175781 678.621094 1238.835938 C 679.445312 1238.492188 680.25 1238.113281 681.039062 1237.691406 C 681.828125 1237.269531 682.59375 1236.8125 683.335938 1236.316406 C 684.078125 1235.820312 684.792969 1235.285156 685.484375 1234.71875 C 686.175781 1234.152344 686.835938 1233.554688 687.46875 1232.921875 C 688.101562 1232.292969 688.699219 1231.628906 689.265625 1230.941406 C 689.832031 1230.25 690.363281 1229.53125 690.859375 1228.789062 C 691.355469 1228.046875 691.816406 1227.28125 692.234375 1226.492188 C 692.65625 1225.707031 693.039062 1224.898438 693.378906 1224.074219 C 693.722656 1223.25 694.023438 1222.410156 694.28125 1221.554688 C 694.539062 1220.699219 694.757812 1219.832031 694.929688 1218.957031 C 695.105469 1218.082031 695.238281 1217.199219 695.324219 1216.308594 C 695.410156 1215.421875 695.453125 1214.53125 695.453125 1213.636719 L 695.453125 722.726562 C 695.453125 721.832031 695.410156 720.941406 695.324219 720.054688 C 695.238281 719.164062 695.105469 718.28125 694.933594 717.40625 C 694.757812 716.53125 694.539062 715.664062 694.28125 714.808594 C 694.023438 713.953125 693.722656 713.113281 693.378906 712.289062 C 693.039062 711.464844 692.65625 710.65625 692.234375 709.871094 C 691.816406 709.082031 691.355469 708.316406 690.859375 707.574219 C 690.363281 706.832031 689.832031 706.113281 689.265625 705.421875 C 688.699219 704.734375 688.101562 704.070312 687.46875 703.441406 C 686.835938 702.808594 686.175781 702.210938 685.484375 701.644531 C 684.792969 701.074219 684.078125 700.542969 683.335938 700.046875 C 682.59375 699.550781 681.828125 699.09375 681.039062 698.671875 C 680.25 698.25 679.445312 697.871094 678.621094 697.527344 C 677.792969 697.1875 676.953125 696.886719 676.097656 696.628906 C 675.246094 696.367188 674.378906 696.152344 673.503906 695.976562 C 672.625 695.804688 671.746094 695.671875 670.855469 695.585938 C 669.964844 695.496094 669.074219 695.453125 668.183594 695.453125 L 177.273438 695.453125 C 176.378906 695.453125 175.488281 695.496094 174.597656 695.585938 C 173.710938 695.671875 172.828125 695.804688 171.953125 695.976562 C 171.074219 696.152344 170.210938 696.367188 169.355469 696.628906 C 168.5 696.886719 167.660156 697.1875 166.835938 697.527344 C 166.007812 697.871094 165.203125 698.25 164.414062 698.671875 C 163.628906 699.09375 162.863281 699.550781 162.117188 700.046875 C 161.375 700.542969 160.660156 701.074219 159.96875 701.644531 C 159.277344 702.210938 158.617188 702.808594 157.984375 703.441406 C 157.355469 704.070312 156.753906 704.734375 156.1875 705.421875 C 155.621094 706.113281 155.089844 706.832031 154.59375 707.574219 C 154.097656 708.316406 153.640625 709.082031 153.21875 709.871094 C 152.796875 710.65625 152.414062 711.464844 152.074219 712.289062 C 151.730469 713.113281 151.433594 713.953125 151.171875 714.808594 C 150.914062 715.664062 150.695312 716.53125 150.523438 717.40625 C 150.347656 718.28125 150.21875 719.164062 150.128906 720.054688 C 150.042969 720.941406 150 721.832031 150 722.726562 Z M 150 722.726562 " fill-opacity="1" fill-rule="nonzero"/><path fill="#e8ebf7" d="M 1350 968.183594 C 1350 974.429688 1349.847656 980.675781 1349.539062 986.917969 C 1349.234375 993.15625 1348.773438 999.386719 1348.160156 1005.605469 C 1347.546875 1011.824219 1346.785156 1018.023438 1345.867188 1024.207031 C 1344.949219 1030.386719 1343.882812 1036.542969 1342.664062 1042.671875 C 1341.445312 1048.800781 1340.074219 1054.894531 1338.558594 1060.957031 C 1337.039062 1067.015625 1335.371094 1073.039062 1333.558594 1079.019531 C 1331.746094 1084.996094 1329.785156 1090.929688 1327.679688 1096.8125 C 1325.574219 1102.695312 1323.328125 1108.523438 1320.933594 1114.296875 C 1318.542969 1120.070312 1316.011719 1125.78125 1313.339844 1131.429688 C 1310.667969 1137.078125 1307.859375 1142.660156 1304.914062 1148.167969 C 1301.96875 1153.679688 1298.890625 1159.117188 1295.679688 1164.476562 C 1292.464844 1169.835938 1289.125 1175.113281 1285.652344 1180.308594 C 1282.179688 1185.503906 1278.582031 1190.613281 1274.859375 1195.628906 C 1271.136719 1200.648438 1267.296875 1205.574219 1263.332031 1210.40625 C 1259.367188 1215.234375 1255.285156 1219.964844 1251.089844 1224.59375 C 1246.894531 1229.226562 1242.585938 1233.75 1238.167969 1238.167969 C 1233.75 1242.585938 1229.226562 1246.894531 1224.59375 1251.089844 C 1219.964844 1255.285156 1215.234375 1259.367188 1210.40625 1263.332031 C 1205.574219 1267.296875 1200.648438 1271.136719 1195.628906 1274.859375 C 1190.613281 1278.582031 1185.503906 1282.179688 1180.308594 1285.652344 C 1175.113281 1289.125 1169.835938 1292.464844 1164.476562 1295.679688 C 1159.117188 1298.890625 1153.679688 1301.96875 1148.167969 1304.914062 C 1142.660156 1307.859375 1137.078125 1310.667969 1131.429688 1313.339844 C 1125.78125 1316.011719 1120.070312 1318.542969 1114.296875 1320.933594 C 1108.523438 1323.328125 1102.695312 1325.574219 1096.8125 1327.679688 C 1090.929688 1329.785156 1084.996094 1331.746094 1079.019531 1333.558594 C 1073.039062 1335.371094 1067.015625 1337.039062 1060.957031 1338.558594 C 1054.894531 1340.074219 1048.800781 1341.445312 1042.671875 1342.664062 C 1036.542969 1343.882812 1030.386719 1344.949219 1024.207031 1345.867188 C 1018.023438 1346.785156 1011.824219 1347.546875 1005.605469 1348.160156 C 999.386719 1348.773438 993.15625 1349.234375 986.917969 1349.539062 C 980.675781 1349.847656 974.429688 1350 968.183594 1350 C 961.933594 1350 955.6875 1349.847656 949.445312 1349.539062 C 943.207031 1349.234375 936.976562 1348.773438 930.757812 1348.160156 C 924.539062 1347.546875 918.339844 1346.785156 912.15625 1345.867188 C 905.976562 1344.949219 899.820312 1343.882812 893.691406 1342.664062 C 887.5625 1341.445312 881.46875 1340.074219 875.40625 1338.558594 C 869.347656 1337.039062 863.324219 1335.371094 857.34375 1333.558594 C 851.367188 1331.746094 845.433594 1329.785156 839.550781 1327.679688 C 833.667969 1325.574219 827.839844 1323.328125 822.066406 1320.933594 C 816.292969 1318.542969 810.582031 1316.011719 804.933594 1313.339844 C 799.285156 1310.667969 793.703125 1307.859375 788.195312 1304.914062 C 782.683594 1301.96875 777.246094 1298.890625 771.886719 1295.679688 C 766.527344 1292.464844 761.25 1289.125 756.054688 1285.652344 C 750.859375 1282.179688 745.75 1278.582031 740.734375 1274.859375 C 735.714844 1271.136719 730.789062 1267.296875 725.957031 1263.332031 C 721.128906 1259.367188 716.398438 1255.285156 711.769531 1251.089844 C 707.136719 1246.894531 702.613281 1242.585938 698.195312 1238.167969 C 693.777344 1233.75 689.46875 1229.226562 685.273438 1224.59375 C 681.078125 1219.964844 676.996094 1215.234375 673.03125 1210.40625 C 669.066406 1205.574219 665.226562 1200.648438 661.503906 1195.628906 C 657.78125 1190.613281 654.183594 1185.503906 650.710938 1180.308594 C 647.238281 1175.113281 643.898438 1169.835938 640.683594 1164.476562 C 637.472656 1159.117188 634.394531 1153.679688 631.449219 1148.167969 C 628.503906 1142.660156 625.695312 1137.078125 623.023438 1131.429688 C 620.351562 1125.78125 617.820312 1120.070312 615.429688 1114.296875 C 613.035156 1108.523438 610.789062 1102.695312 608.683594 1096.8125 C 606.578125 1090.929688 604.617188 1084.996094 602.804688 1079.019531 C 600.992188 1073.039062 599.324219 1067.015625 597.804688 1060.957031 C 596.289062 1054.894531 594.917969 1048.800781 593.699219 1042.671875 C 592.480469 1036.542969 591.414062 1030.386719 590.496094 1024.207031 C 589.578125 1018.023438 588.816406 1011.824219 588.203125 1005.605469 C 587.589844 999.386719 587.128906 993.15625 586.824219 986.917969 C 586.515625 980.675781 586.363281 974.429688 586.363281 968.183594 C 586.363281 961.933594 586.515625 955.6875 586.824219 949.445312 C 587.128906 943.207031 587.589844 936.976562 588.203125 930.757812 C 588.816406 924.539062 589.578125 918.339844 590.496094 912.15625 C 591.414062 905.976562 592.480469 899.820312 593.699219 893.691406 C 594.917969 887.5625 596.289062 881.46875 597.804688 875.40625 C 599.324219 869.347656 600.992188 863.324219 602.804688 857.34375 C 604.617188 851.367188 606.578125 845.433594 608.683594 839.550781 C 610.789062 833.667969 613.035156 827.839844 615.429688 822.066406 C 617.820312 816.292969 620.351562 810.582031 623.023438 804.933594 C 625.695312 799.285156 628.503906 793.703125 631.449219 788.195312 C 634.394531 782.683594 637.472656 777.246094 640.683594 771.886719 C 643.898438 766.527344 647.238281 761.25 650.710938 756.054688 C 654.183594 750.859375 657.78125 745.75 661.503906 740.734375 C 665.226562 735.714844 669.066406 730.789062 673.03125 725.957031 C 676.996094 721.128906 681.078125 716.398438 685.273438 711.769531 C 689.46875 707.136719 693.777344 702.613281 698.195312 698.195312 C 702.613281 693.777344 707.136719 689.46875 711.769531 685.273438 C 716.398438 681.078125 721.128906 676.996094 725.957031 673.03125 C 730.789062 669.066406 735.714844 665.226562 740.734375 661.503906 C 745.75 657.78125 750.859375 654.183594 756.054688 650.710938 C 761.25 647.238281 766.527344 643.898438 771.886719 640.683594 C 777.246094 637.472656 782.683594 634.394531 788.195312 631.449219 C 793.703125 628.503906 799.285156 625.695312 804.933594 623.023438 C 810.582031 620.351562 816.292969 617.820312 822.066406 615.425781 C 827.839844 613.035156 833.667969 610.789062 839.550781 608.683594 C 845.433594 606.578125 851.367188 604.617188 857.347656 602.804688 C 863.324219 600.992188 869.347656 599.324219 875.40625 597.804688 C 881.46875 596.289062 887.5625 594.917969 893.691406 593.699219 C 899.820312 592.480469 905.976562 591.414062 912.15625 590.496094 C 918.339844 589.578125 924.539062 588.816406 930.757812 588.203125 C 936.976562 587.589844 943.207031 587.128906 949.445312 586.824219 C 955.6875 586.515625 961.933594 586.363281 968.183594 586.363281 C 974.429688 586.363281 980.675781 586.515625 986.917969 586.824219 C 993.15625 587.128906 999.386719 587.589844 1005.605469 588.203125 C 1011.824219 588.816406 1018.023438 589.578125 1024.207031 590.496094 C 1030.386719 591.414062 1036.542969 592.480469 1042.671875 593.699219 C 1048.800781 594.917969 1054.894531 596.289062 1060.957031 597.804688 C 1067.015625 599.324219 1073.039062 600.992188 1079.019531 602.804688 C 1084.996094 604.617188 1090.929688 606.578125 1096.8125 608.683594 C 1102.695312 610.789062 1108.523438 613.035156 1114.296875 615.425781 C 1120.070312 617.820312 1125.78125 620.351562 1131.429688 623.023438 C 1137.078125 625.695312 1142.660156 628.503906 1148.167969 631.449219 C 1153.679688 634.394531 1159.117188 637.472656 1164.476562 640.683594 C 1169.835938 643.898438 1175.113281 647.238281 1180.308594 650.710938 C 1185.503906 654.183594 1190.613281 657.78125 1195.628906 661.503906 C 1200.648438 665.226562 1205.574219 669.066406 1210.40625 673.03125 C 1215.234375 676.996094 1219.964844 681.078125 1224.59375 685.273438 C 1229.226562 689.46875 1233.75 693.777344 1238.167969 698.195312 C 1242.585938 702.613281 1246.894531 707.136719 1251.089844 711.769531 C 1255.285156 716.398438 1259.367188 721.128906 1263.332031 725.957031 C 1267.296875 730.789062 1271.136719 735.714844 1274.859375 740.734375 C 1278.582031 745.75 1282.179688 750.859375 1285.652344 756.054688 C 1289.125 761.25 1292.464844 766.527344 1295.679688 771.886719 C 1298.890625 777.246094 1301.96875 782.683594 1304.914062 788.195312 C 1307.859375 793.703125 1310.667969 799.285156 1313.339844 804.933594 C 1316.011719 810.582031 1318.542969 816.292969 1320.933594 822.066406 C 1323.328125 827.839844 1325.574219 833.667969 1327.679688 839.550781 C 1329.785156 845.433594 1331.746094 851.367188 1333.558594 857.34375 C 1335.371094 863.324219 1337.039062 869.347656 1338.558594 875.40625 C 1340.074219 881.46875 1341.445312 887.5625 1342.664062 893.691406 C 1343.882812 899.820312 1344.949219 905.976562 1345.867188 912.15625 C 1346.785156 918.339844 1347.546875 924.539062 1348.160156 930.757812 C 1348.773438 936.976562 1349.234375 943.207031 1349.539062 949.445312 C 1349.847656 955.6875 1350 961.933594 1350 968.183594 Z M 1350 968.183594 " fill-opacity="1" fill-rule="nonzero"/><path fill="#ffffff" d="M 586.363281 409.089844 L 463.636719 409.089844 L 463.636719 286.363281 C 463.636719 285.46875 463.59375 284.578125 463.503906 283.691406 C 463.417969 282.800781 463.285156 281.917969 463.113281 281.042969 C 462.9375 280.167969 462.722656 279.300781 462.460938 278.445312 C 462.203125 277.59375 461.902344 276.753906 461.558594 275.925781 C 461.21875 275.101562 460.835938 274.296875 460.414062 273.507812 C 459.996094 272.71875 459.535156 271.953125 459.039062 271.210938 C 458.542969 270.46875 458.011719 269.753906 457.445312 269.0625 C 456.878906 268.371094 456.28125 267.710938 455.648438 267.078125 C 455.015625 266.445312 454.355469 265.847656 453.664062 265.28125 C 452.976562 264.714844 452.257812 264.183594 451.515625 263.6875 C 450.773438 263.191406 450.007812 262.730469 449.21875 262.3125 C 448.433594 261.890625 447.625 261.507812 446.800781 261.167969 C 445.976562 260.824219 445.136719 260.523438 444.28125 260.265625 C 443.425781 260.007812 442.558594 259.789062 441.683594 259.613281 C 440.808594 259.441406 439.925781 259.308594 439.035156 259.222656 C 438.148438 259.132812 437.257812 259.089844 436.363281 259.089844 C 435.46875 259.089844 434.578125 259.132812 433.691406 259.222656 C 432.800781 259.308594 431.917969 259.441406 431.042969 259.613281 C 430.167969 259.789062 429.300781 260.007812 428.445312 260.265625 C 427.59375 260.523438 426.753906 260.824219 425.925781 261.167969 C 425.101562 261.507812 424.296875 261.890625 423.507812 262.3125 C 422.71875 262.730469 421.953125 263.191406 421.210938 263.6875 C 420.46875 264.183594 419.753906 264.714844 419.0625 265.28125 C 418.371094 265.847656 417.710938 266.445312 417.078125 267.078125 C 416.449219 267.710938 415.847656 268.371094 415.28125 269.0625 C 414.714844 269.753906 414.183594 270.46875 413.6875 271.210938 C 413.191406 271.953125 412.730469 272.71875 412.3125 273.507812 C 411.890625 274.296875 411.507812 275.101562 411.167969 275.925781 C 410.824219 276.753906 410.523438 277.59375 410.265625 278.445312 C 410.007812 279.300781 409.789062 280.167969 409.613281 281.042969 C 409.441406 281.917969 409.308594 282.800781 409.222656 283.691406 C 409.132812 284.578125 409.089844 285.46875 409.089844 286.363281 L 409.089844 409.089844 L 286.363281 409.089844 C 285.46875 409.089844 284.578125 409.132812 283.691406 409.222656 C 282.800781 409.308594 281.917969 409.441406 281.042969 409.613281 C 280.167969 409.789062 279.300781 410.007812 278.445312 410.265625 C 277.59375 410.523438 276.753906 410.824219 275.925781 411.167969 C 275.101562 411.507812 274.296875 411.890625 273.507812 412.3125 C 272.71875 412.730469 271.953125 413.191406 271.210938 413.6875 C 270.46875 414.183594 269.753906 414.714844 269.0625 415.28125 C 268.371094 415.847656 267.710938 416.445312 267.078125 417.078125 C 266.449219 417.710938 265.847656 418.371094 265.28125 419.0625 C 264.714844 419.753906 264.183594 420.46875 263.6875 421.210938 C 263.191406 421.953125 262.730469 422.71875 262.3125 423.507812 C 261.890625 424.296875 261.507812 425.101562 261.167969 425.925781 C 260.824219 426.753906 260.523438 427.59375 260.265625 428.445312 C 260.007812 429.300781 259.789062 430.167969 259.613281 431.042969 C 259.441406 431.917969 259.308594 432.800781 259.222656 433.691406 C 259.132812 434.578125 259.089844 435.46875 259.089844 436.363281 C 259.089844 437.257812 259.132812 438.148438 259.222656 439.035156 C 259.308594 439.925781 259.441406 440.808594 259.613281 441.683594 C 259.789062 442.558594 260.007812 443.425781 260.265625 444.28125 C 260.523438 445.136719 260.824219 445.976562 261.167969 446.800781 C 261.507812 447.625 261.890625 448.433594 262.3125 449.21875 C 262.730469 450.007812 263.191406 450.773438 263.6875 451.515625 C 264.183594 452.257812 264.714844 452.976562 265.28125 453.664062 C 265.847656 454.355469 266.449219 455.015625 267.078125 455.648438 C 267.710938 456.28125 268.371094 456.878906 269.0625 457.445312 C 269.753906 458.011719 270.46875 458.542969 271.210938 459.039062 C 271.953125 459.535156 272.71875 459.996094 273.507812 460.414062 C 274.296875 460.835938 275.101562 461.21875 275.925781 461.558594 C 276.753906 461.902344 277.59375 462.203125 278.445312 462.460938 C 279.300781 462.722656 280.167969 462.9375 281.042969 463.113281 C 281.917969 463.285156 282.800781 463.417969 283.691406 463.503906 C 284.578125 463.59375 285.46875 463.636719 286.363281 463.636719 L 409.089844 463.636719 L 409.089844 586.363281 C 409.089844 587.257812 409.132812 588.148438 409.222656 589.035156 C 409.308594 589.925781 409.441406 590.808594 409.613281 591.683594 C 409.789062 592.558594 410.007812 593.425781 410.265625 594.28125 C 410.523438 595.136719 410.824219 595.976562 411.167969 596.800781 C 411.507812 597.625 411.890625 598.433594 412.3125 599.21875 C 412.730469 600.007812 413.191406 600.773438 413.6875 601.515625 C 414.183594 602.257812 414.714844 602.976562 415.28125 603.664062 C 415.847656 604.355469 416.449219 605.015625 417.078125 605.648438 C 417.710938 606.28125 418.371094 606.878906 419.0625 607.445312 C 419.753906 608.011719 420.46875 608.542969 421.210938 609.039062 C 421.953125 609.535156 422.71875 609.996094 423.507812 610.414062 C 424.296875 610.835938 425.101562 611.21875 425.925781 611.558594 C 426.753906 611.902344 427.59375 612.203125 428.445312 612.460938 C 429.300781 612.722656 430.167969 612.9375 431.042969 613.113281 C 431.917969 613.285156 432.800781 613.417969 433.691406 613.503906 C 434.578125 613.59375 435.46875 613.636719 436.363281 613.636719 C 437.257812 613.636719 438.148438 613.59375 439.035156 613.503906 C 439.925781 613.417969 440.808594 613.285156 441.683594 613.113281 C 442.558594 612.9375 443.425781 612.722656 444.28125 612.460938 C 445.136719 612.203125 445.976562 611.902344 446.800781 611.558594 C 447.625 611.21875 448.433594 610.835938 449.21875 610.414062 C 450.007812 609.996094 450.773438 609.535156 451.515625 609.039062 C 452.257812 608.542969 452.976562 608.011719 453.664062 607.445312 C 454.355469 606.878906 455.015625 606.28125 455.648438 605.648438 C 456.28125 605.015625 456.878906 604.355469 457.445312 603.664062 C 458.011719 602.976562 458.542969 602.257812 459.039062 601.515625 C 459.535156 600.773438 459.996094 600.007812 460.414062 599.21875 C 460.835938 598.433594 461.21875 597.625 461.558594 596.800781 C 461.902344 595.976562 462.203125 595.136719 462.460938 594.28125 C 462.722656 593.425781 462.9375 592.558594 463.113281 591.683594 C 463.285156 590.808594 463.417969 589.925781 463.503906 589.035156 C 463.59375 588.148438 463.636719 587.257812 463.636719 586.363281 L 463.636719 463.636719 L 586.363281 463.636719 C 587.257812 463.636719 588.148438 463.59375 589.035156 463.503906 C 589.925781 463.417969 590.808594 463.285156 591.683594 463.113281 C 592.558594 462.9375 593.425781 462.722656 594.28125 462.460938 C 595.136719 462.203125 595.976562 461.902344 596.800781 461.558594 C 597.625 461.21875 598.433594 460.835938 599.21875 460.414062 C 600.007812 459.996094 600.773438 459.535156 601.515625 459.039062 C 602.257812 458.542969 602.976562 458.011719 603.664062 457.445312 C 604.355469 456.878906 605.015625 456.28125 605.648438 455.648438 C 606.28125 455.015625 606.878906 454.355469 607.445312 453.664062 C 608.011719 452.976562 608.542969 452.257812 609.039062 451.515625 C 609.535156 450.773438 609.996094 450.007812 610.414062 449.21875 C 610.835938 448.433594 611.21875 447.625 611.558594 446.800781 C 611.902344 445.976562 612.203125 445.136719 612.460938 444.28125 C 612.722656 443.425781 612.9375 442.558594 613.113281 441.683594 C 613.285156 440.808594 613.417969 439.925781 613.503906 439.035156 C 613.59375 438.148438 613.636719 437.257812 613.636719 436.363281 C 613.636719 435.46875 613.59375 434.578125 613.503906 433.691406 C 613.417969 432.800781 613.285156 431.917969 613.113281 431.042969 C 612.9375 430.167969 612.722656 429.300781 612.460938 428.445312 C 612.203125 427.59375 611.902344 426.753906 611.558594 425.925781 C 611.21875 425.101562 610.835938 424.296875 610.414062 423.507812 C 609.996094 422.71875 609.535156 421.953125 609.039062 421.210938 C 608.542969 420.46875 608.011719 419.753906 607.445312 419.0625 C 606.878906 418.371094 606.28125 417.710938 605.648438 417.078125 C 605.015625 416.445312 604.355469 415.847656 603.664062 415.28125 C 602.976562 414.714844 602.257812 414.183594 601.515625 413.6875 C 600.773438 413.191406 600.007812 412.730469 599.21875 412.3125 C 598.433594 411.890625 597.625 411.507812 596.800781 411.167969 C 595.976562 410.824219 595.136719 410.523438 594.28125 410.265625 C 593.425781 410.007812 592.558594 409.789062 591.683594 409.613281 C 590.808594 409.441406 589.925781 409.308594 589.035156 409.222656 C 588.148438 409.132812 587.257812 409.089844 586.363281 409.089844 Z M 586.363281 409.089844 " fill-opacity="1" fill-rule="nonzero"/><path fill="#ffffff" d="M 474.929688 954.546875 C 520.804688 908.671875 561.699219 867.773438 561.699219 867.773438 C 562.3125 867.136719 562.890625 866.472656 563.4375 865.78125 C 563.984375 865.089844 564.496094 864.371094 564.972656 863.632812 C 565.453125 862.890625 565.890625 862.125 566.296875 861.339844 C 566.699219 860.558594 567.0625 859.753906 567.390625 858.933594 C 567.714844 858.113281 568 857.28125 568.246094 856.433594 C 568.492188 855.585938 568.695312 854.730469 568.855469 853.863281 C 569.015625 852.996094 569.136719 852.121094 569.214844 851.242188 C 569.289062 850.363281 569.324219 849.484375 569.316406 848.601562 C 569.308594 847.71875 569.253906 846.839844 569.160156 845.960938 C 569.066406 845.085938 568.933594 844.214844 568.753906 843.351562 C 568.574219 842.484375 568.355469 841.632812 568.09375 840.789062 C 567.832031 839.949219 567.53125 839.121094 567.191406 838.304688 C 566.847656 837.492188 566.46875 836.699219 566.050781 835.921875 C 565.628906 835.144531 565.175781 834.390625 564.683594 833.65625 C 564.191406 832.925781 563.664062 832.21875 563.105469 831.539062 C 562.542969 830.855469 561.953125 830.203125 561.328125 829.582031 C 560.703125 828.957031 560.050781 828.363281 559.371094 827.804688 C 558.691406 827.242188 557.984375 826.71875 557.25 826.226562 C 556.519531 825.734375 555.765625 825.277344 554.988281 824.859375 C 554.210938 824.441406 553.417969 824.058594 552.601562 823.71875 C 551.789062 823.378906 550.960938 823.074219 550.117188 822.8125 C 549.277344 822.554688 548.421875 822.332031 547.558594 822.15625 C 546.695312 821.976562 545.824219 821.839844 544.945312 821.746094 C 544.070312 821.652344 543.191406 821.601562 542.308594 821.59375 C 541.425781 821.582031 540.546875 821.617188 539.667969 821.695312 C 538.789062 821.773438 537.914062 821.890625 537.046875 822.050781 C 536.179688 822.214844 535.324219 822.417969 534.476562 822.660156 C 533.628906 822.90625 532.792969 823.191406 531.972656 823.519531 C 531.152344 823.84375 530.351562 824.207031 529.566406 824.609375 C 528.78125 825.015625 528.019531 825.457031 527.277344 825.933594 C 526.535156 826.410156 525.820312 826.921875 525.128906 827.46875 C 524.433594 828.015625 523.769531 828.597656 523.136719 829.207031 L 436.363281 915.980469 L 349.59375 829.210938 C 348.957031 828.597656 348.292969 828.019531 347.601562 827.472656 C 346.910156 826.925781 346.191406 826.414062 345.449219 825.9375 C 344.707031 825.460938 343.945312 825.019531 343.160156 824.617188 C 342.378906 824.214844 341.574219 823.847656 340.753906 823.523438 C 339.933594 823.199219 339.101562 822.914062 338.253906 822.667969 C 337.40625 822.425781 336.550781 822.222656 335.683594 822.058594 C 334.816406 821.898438 333.941406 821.78125 333.0625 821.703125 C 332.1875 821.625 331.304688 821.59375 330.421875 821.601562 C 329.542969 821.609375 328.660156 821.660156 327.785156 821.757812 C 326.910156 821.851562 326.039062 821.984375 325.175781 822.164062 C 324.308594 822.34375 323.457031 822.5625 322.613281 822.824219 C 321.773438 823.085938 320.945312 823.386719 320.132812 823.726562 C 319.320312 824.070312 318.523438 824.449219 317.746094 824.867188 C 316.972656 825.289062 316.21875 825.742188 315.484375 826.234375 C 314.753906 826.726562 314.046875 827.253906 313.367188 827.8125 C 312.683594 828.371094 312.03125 828.964844 311.40625 829.589844 C 310.785156 830.210938 310.191406 830.863281 309.632812 831.546875 C 309.070312 832.226562 308.546875 832.933594 308.054688 833.664062 C 307.5625 834.398438 307.105469 835.152344 306.6875 835.925781 C 306.269531 836.703125 305.890625 837.5 305.546875 838.3125 C 305.207031 839.125 304.90625 839.953125 304.644531 840.792969 C 304.382812 841.636719 304.160156 842.488281 303.984375 843.355469 C 303.804688 844.21875 303.667969 845.085938 303.574219 845.964844 C 303.480469 846.839844 303.429688 847.722656 303.421875 848.601562 C 303.410156 849.484375 303.445312 850.363281 303.523438 851.242188 C 303.597656 852.121094 303.71875 852.996094 303.878906 853.863281 C 304.039062 854.730469 304.242188 855.585938 304.488281 856.433594 C 304.730469 857.28125 305.015625 858.113281 305.339844 858.933594 C 305.667969 859.753906 306.03125 860.558594 306.433594 861.339844 C 306.835938 862.125 307.277344 862.890625 307.753906 863.628906 C 308.230469 864.371094 308.742188 865.089844 309.289062 865.78125 C 309.835938 866.472656 310.414062 867.136719 311.027344 867.773438 L 397.796875 954.546875 C 351.921875 1000.421875 311.027344 1041.316406 311.027344 1041.316406 C 310.394531 1041.949219 309.796875 1042.609375 309.230469 1043.300781 C 308.664062 1043.992188 308.132812 1044.707031 307.636719 1045.449219 C 307.140625 1046.191406 306.683594 1046.957031 306.261719 1047.746094 C 305.839844 1048.53125 305.457031 1049.339844 305.117188 1050.164062 C 304.773438 1050.988281 304.472656 1051.828125 304.214844 1052.683594 C 303.957031 1053.539062 303.738281 1054.402344 303.566406 1055.28125 C 303.390625 1056.15625 303.257812 1057.039062 303.171875 1057.925781 C 303.085938 1058.816406 303.039062 1059.707031 303.039062 1060.597656 C 303.039062 1061.492188 303.085938 1062.382812 303.171875 1063.273438 C 303.257812 1064.160156 303.390625 1065.042969 303.566406 1065.917969 C 303.738281 1066.796875 303.957031 1067.660156 304.214844 1068.515625 C 304.472656 1069.371094 304.773438 1070.210938 305.117188 1071.035156 C 305.457031 1071.859375 305.839844 1072.667969 306.261719 1073.453125 C 306.679688 1074.242188 307.140625 1075.007812 307.636719 1075.75 C 308.132812 1076.492188 308.664062 1077.207031 309.230469 1077.898438 C 309.796875 1078.589844 310.394531 1079.25 311.027344 1079.882812 C 311.660156 1080.511719 312.320312 1081.113281 313.011719 1081.679688 C 313.699219 1082.246094 314.417969 1082.777344 315.160156 1083.273438 C 315.902344 1083.769531 316.667969 1084.226562 317.453125 1084.648438 C 318.242188 1085.070312 319.046875 1085.453125 319.875 1085.792969 C 320.699219 1086.136719 321.539062 1086.4375 322.394531 1086.695312 C 323.25 1086.953125 324.113281 1087.171875 324.988281 1087.34375 C 325.867188 1087.519531 326.746094 1087.652344 327.636719 1087.738281 C 328.523438 1087.824219 329.417969 1087.871094 330.308594 1087.871094 C 331.203125 1087.871094 332.09375 1087.824219 332.980469 1087.738281 C 333.871094 1087.652344 334.753906 1087.519531 335.628906 1087.34375 C 336.503906 1087.171875 337.371094 1086.953125 338.226562 1086.695312 C 339.078125 1086.4375 339.917969 1086.136719 340.746094 1085.792969 C 341.570312 1085.453125 342.375 1085.070312 343.164062 1084.648438 C 343.953125 1084.230469 344.714844 1083.769531 345.460938 1083.273438 C 346.203125 1082.777344 346.917969 1082.246094 347.609375 1081.679688 C 348.300781 1081.113281 348.960938 1080.515625 349.589844 1079.882812 L 436.363281 993.109375 L 523.136719 1079.882812 C 523.765625 1080.515625 524.425781 1081.117188 525.117188 1081.683594 C 525.808594 1082.25 526.523438 1082.785156 527.265625 1083.28125 C 528.011719 1083.777344 528.773438 1084.238281 529.5625 1084.660156 C 530.351562 1085.082031 531.15625 1085.464844 531.984375 1085.804688 C 532.808594 1086.148438 533.648438 1086.449219 534.503906 1086.710938 C 535.359375 1086.96875 536.222656 1087.1875 537.101562 1087.363281 C 537.976562 1087.539062 538.859375 1087.667969 539.75 1087.757812 C 540.640625 1087.847656 541.53125 1087.890625 542.425781 1087.890625 C 543.316406 1087.890625 544.210938 1087.847656 545.097656 1087.761719 C 545.988281 1087.671875 546.871094 1087.542969 547.75 1087.367188 C 548.625 1087.195312 549.492188 1086.976562 550.347656 1086.71875 C 551.203125 1086.460938 552.042969 1086.160156 552.867188 1085.816406 C 553.695312 1085.476562 554.5 1085.09375 555.289062 1084.671875 C 556.078125 1084.253906 556.84375 1083.792969 557.585938 1083.296875 C 558.328125 1082.800781 559.046875 1082.269531 559.738281 1081.703125 C 560.429688 1081.136719 561.089844 1080.535156 561.722656 1079.902344 C 562.355469 1079.273438 562.953125 1078.609375 563.519531 1077.917969 C 564.085938 1077.226562 564.617188 1076.511719 565.117188 1075.769531 C 565.613281 1075.023438 566.070312 1074.257812 566.492188 1073.472656 C 566.914062 1072.683594 567.292969 1071.875 567.636719 1071.050781 C 567.976562 1070.222656 568.277344 1069.382812 568.539062 1068.527344 C 568.796875 1067.671875 569.011719 1066.808594 569.1875 1065.929688 C 569.359375 1065.054688 569.492188 1064.171875 569.578125 1063.28125 C 569.667969 1062.390625 569.710938 1061.5 569.710938 1060.605469 C 569.707031 1059.710938 569.664062 1058.820312 569.574219 1057.929688 C 569.488281 1057.042969 569.355469 1056.160156 569.179688 1055.28125 C 569.007812 1054.40625 568.789062 1053.539062 568.527344 1052.683594 C 568.269531 1051.832031 567.96875 1050.988281 567.625 1050.164062 C 567.28125 1049.339844 566.898438 1048.53125 566.476562 1047.746094 C 566.054688 1046.957031 565.597656 1046.191406 565.097656 1045.449219 C 564.601562 1044.707031 564.070312 1043.988281 563.5 1043.300781 C 562.933594 1042.609375 562.332031 1041.949219 561.699219 1041.316406 Z M 474.929688 954.546875 " fill-opacity="1" fill-rule="nonzero"/><path fill="#ffffff" d="M 1104.546875 463.636719 L 804.546875 463.636719 C 803.652344 463.636719 802.761719 463.59375 801.871094 463.503906 C 800.984375 463.417969 800.101562 463.285156 799.226562 463.113281 C 798.347656 462.9375 797.484375 462.722656 796.628906 462.460938 C 795.773438 462.203125 794.933594 461.902344 794.109375 461.558594 C 793.285156 461.21875 792.476562 460.835938 791.6875 460.414062 C 790.902344 459.996094 790.136719 459.535156 789.394531 459.039062 C 788.652344 458.542969 787.933594 458.011719 787.242188 457.445312 C 786.554688 456.878906 785.890625 456.28125 785.261719 455.648438 C 784.628906 455.015625 784.03125 454.355469 783.464844 453.664062 C 782.898438 452.976562 782.363281 452.257812 781.867188 451.515625 C 781.371094 450.773438 780.914062 450.007812 780.492188 449.21875 C 780.070312 448.433594 779.691406 447.625 779.347656 446.800781 C 779.007812 445.976562 778.707031 445.136719 778.445312 444.28125 C 778.1875 443.425781 777.972656 442.558594 777.796875 441.683594 C 777.621094 440.808594 777.492188 439.925781 777.402344 439.035156 C 777.316406 438.148438 777.273438 437.257812 777.273438 436.363281 C 777.273438 435.46875 777.316406 434.578125 777.402344 433.691406 C 777.492188 432.800781 777.621094 431.917969 777.796875 431.042969 C 777.972656 430.167969 778.1875 429.300781 778.445312 428.445312 C 778.707031 427.59375 779.007812 426.753906 779.347656 425.925781 C 779.691406 425.101562 780.070312 424.296875 780.492188 423.507812 C 780.914062 422.71875 781.371094 421.953125 781.867188 421.210938 C 782.363281 420.46875 782.898438 419.753906 783.464844 419.0625 C 784.03125 418.371094 784.628906 417.710938 785.261719 417.078125 C 785.890625 416.445312 786.554688 415.847656 787.242188 415.28125 C 787.933594 414.714844 788.652344 414.183594 789.394531 413.6875 C 790.136719 413.191406 790.902344 412.730469 791.6875 412.3125 C 792.476562 411.890625 793.285156 411.507812 794.109375 411.167969 C 794.933594 410.824219 795.773438 410.523438 796.628906 410.265625 C 797.484375 410.007812 798.347656 409.789062 799.226562 409.613281 C 800.101562 409.441406 800.984375 409.308594 801.871094 409.222656 C 802.761719 409.132812 803.652344 409.089844 804.546875 409.089844 L 1104.546875 409.089844 C 1105.4375 409.089844 1106.328125 409.132812 1107.21875 409.222656 C 1108.109375 409.308594 1108.988281 409.441406 1109.867188 409.613281 C 1110.742188 409.789062 1111.605469 410.007812 1112.460938 410.265625 C 1113.316406 410.523438 1114.15625 410.824219 1114.980469 411.167969 C 1115.808594 411.507812 1116.613281 411.890625 1117.402344 412.3125 C 1118.1875 412.730469 1118.953125 413.191406 1119.695312 413.6875 C 1120.441406 414.183594 1121.15625 414.714844 1121.847656 415.28125 C 1122.539062 415.847656 1123.199219 416.445312 1123.828125 417.078125 C 1124.460938 417.710938 1125.0625 418.371094 1125.628906 419.0625 C 1126.195312 419.753906 1126.726562 420.46875 1127.222656 421.210938 C 1127.71875 421.953125 1128.175781 422.71875 1128.597656 423.507812 C 1129.019531 424.296875 1129.398438 425.101562 1129.742188 425.925781 C 1130.082031 426.753906 1130.382812 427.59375 1130.644531 428.445312 C 1130.902344 429.300781 1131.121094 430.167969 1131.292969 431.042969 C 1131.46875 431.917969 1131.597656 432.800781 1131.6875 433.691406 C 1131.773438 434.578125 1131.816406 435.46875 1131.816406 436.363281 C 1131.816406 437.257812 1131.773438 438.148438 1131.6875 439.035156 C 1131.597656 439.925781 1131.46875 440.808594 1131.292969 441.683594 C 1131.121094 442.558594 1130.902344 443.425781 1130.644531 444.28125 C 1130.382812 445.136719 1130.082031 445.976562 1129.742188 446.800781 C 1129.398438 447.625 1129.019531 448.433594 1128.597656 449.21875 C 1128.175781 450.007812 1127.71875 450.773438 1127.222656 451.515625 C 1126.726562 452.257812 1126.195312 452.976562 1125.628906 453.664062 C 1125.0625 454.355469 1124.460938 455.015625 1123.828125 455.648438 C 1123.199219 456.28125 1122.539062 456.878906 1121.847656 457.445312 C 1121.15625 458.011719 1120.441406 458.542969 1119.695312 459.039062 C 1118.953125 459.535156 1118.1875 459.996094 1117.402344 460.414062 C 1116.613281 460.835938 1115.808594 461.21875 1114.980469 461.558594 C 1114.15625 461.902344 1113.316406 462.203125 1112.460938 462.460938 C 1111.605469 462.722656 1110.742188 462.9375 1109.867188 463.113281 C 1108.988281 463.285156 1108.109375 463.417969 1107.21875 463.503906 C 1106.328125 463.59375 1105.4375 463.636719 1104.546875 463.636719 Z M 1104.546875 463.636719 " fill-opacity="1" fill-rule="nonzero"/><path fill="#3f4466" d="M 1131.816406 913.636719 L 804.546875 913.636719 C 803.652344 913.636719 802.761719 913.59375 801.871094 913.503906 C 800.984375 913.417969 800.101562 913.285156 799.226562 913.113281 C 798.347656 912.9375 797.484375 912.722656 796.628906 912.460938 C 795.773438 912.203125 794.933594 911.902344 794.109375 911.558594 C 793.285156 911.21875 792.476562 910.835938 791.6875 910.414062 C 790.902344 909.996094 790.136719 909.535156 789.394531 909.039062 C 788.652344 908.542969 787.933594 908.011719 787.242188 907.445312 C 786.554688 906.878906 785.890625 906.28125 785.261719 905.648438 C 784.628906 905.015625 784.03125 904.355469 783.464844 903.664062 C 782.898438 902.976562 782.363281 902.257812 781.867188 901.515625 C 781.371094 900.773438 780.914062 900.007812 780.492188 899.21875 C 780.070312 898.433594 779.691406 897.625 779.347656 896.800781 C 779.007812 895.976562 778.707031 895.136719 778.445312 894.28125 C 778.1875 893.425781 777.972656 892.558594 777.796875 891.683594 C 777.621094 890.808594 777.492188 889.925781 777.402344 889.035156 C 777.316406 888.148438 777.273438 887.257812 777.273438 886.363281 C 777.273438 885.46875 777.316406 884.578125 777.402344 883.691406 C 777.492188 882.800781 777.621094 881.917969 777.796875 881.042969 C 777.972656 880.167969 778.1875 879.300781 778.445312 878.445312 C 778.707031 877.59375 779.007812 876.75 779.347656 875.925781 C 779.691406 875.101562 780.070312 874.296875 780.492188 873.507812 C 780.914062 872.71875 781.371094 871.953125 781.867188 871.210938 C 782.363281 870.46875 782.898438 869.753906 783.464844 869.0625 C 784.03125 868.371094 784.628906 867.710938 785.261719 867.078125 C 785.890625 866.445312 786.554688 865.847656 787.242188 865.28125 C 787.933594 864.714844 788.652344 864.183594 789.394531 863.6875 C 790.136719 863.191406 790.902344 862.730469 791.6875 862.3125 C 792.476562 861.890625 793.285156 861.507812 794.109375 861.167969 C 794.933594 860.824219 795.773438 860.523438 796.628906 860.265625 C 797.484375 860.003906 798.347656 859.789062 799.226562 859.613281 C 800.101562 859.441406 800.984375 859.308594 801.871094 859.222656 C 802.761719 859.132812 803.652344 859.089844 804.546875 859.089844 L 1131.816406 859.089844 C 1132.710938 859.089844 1133.601562 859.132812 1134.492188 859.222656 C 1135.378906 859.308594 1136.261719 859.441406 1137.136719 859.613281 C 1138.015625 859.789062 1138.878906 860.007812 1139.734375 860.265625 C 1140.589844 860.523438 1141.429688 860.824219 1142.253906 861.167969 C 1143.078125 861.507812 1143.886719 861.890625 1144.675781 862.3125 C 1145.460938 862.730469 1146.226562 863.191406 1146.96875 863.6875 C 1147.710938 864.183594 1148.429688 864.714844 1149.121094 865.28125 C 1149.808594 865.847656 1150.472656 866.445312 1151.101562 867.078125 C 1151.734375 867.710938 1152.332031 868.371094 1152.898438 869.0625 C 1153.464844 869.753906 1154 870.46875 1154.496094 871.210938 C 1154.992188 871.953125 1155.449219 872.71875 1155.871094 873.507812 C 1156.292969 874.296875 1156.671875 875.101562 1157.015625 875.925781 C 1157.355469 876.75 1157.65625 877.59375 1157.917969 878.445312 C 1158.175781 879.300781 1158.390625 880.167969 1158.566406 881.042969 C 1158.742188 881.917969 1158.871094 882.800781 1158.960938 883.691406 C 1159.046875 884.578125 1159.089844 885.46875 1159.089844 886.363281 C 1159.089844 887.257812 1159.046875 888.148438 1158.960938 889.035156 C 1158.871094 889.925781 1158.742188 890.808594 1158.566406 891.683594 C 1158.390625 892.558594 1158.175781 893.425781 1157.917969 894.28125 C 1157.65625 895.136719 1157.355469 895.976562 1157.015625 896.800781 C 1156.671875 897.625 1156.292969 898.433594 1155.871094 899.21875 C 1155.449219 900.007812 1154.992188 900.773438 1154.496094 901.515625 C 1154 902.257812 1153.464844 902.976562 1152.898438 903.664062 C 1152.332031 904.355469 1151.734375 905.015625 1151.101562 905.648438 C 1150.472656 906.28125 1149.808594 906.878906 1149.121094 907.445312 C 1148.429688 908.011719 1147.710938 908.542969 1146.96875 909.039062 C 1146.226562 909.535156 1145.460938 909.996094 1144.675781 910.414062 C 1143.886719 910.835938 1143.078125 911.21875 1142.253906 911.558594 C 1141.429688 911.902344 1140.589844 912.203125 1139.734375 912.460938 C 1138.878906 912.722656 1138.015625 912.9375 1137.136719 913.113281 C 1136.261719 913.285156 1135.378906 913.417969 1134.492188 913.503906 C 1133.601562 913.59375 1132.710938 913.636719 1131.816406 913.636719 Z M 1131.816406 913.636719 " fill-opacity="1" fill-rule="nonzero"/><path fill="#3f4466" d="M 1131.816406 1077.273438 L 804.546875 1077.273438 C 803.652344 1077.273438 802.761719 1077.230469 801.871094 1077.140625 C 800.984375 1077.054688 800.101562 1076.921875 799.226562 1076.75 C 798.347656 1076.574219 797.484375 1076.359375 796.628906 1076.097656 C 795.773438 1075.839844 794.933594 1075.539062 794.109375 1075.195312 C 793.285156 1074.855469 792.476562 1074.472656 791.6875 1074.050781 C 790.902344 1073.632812 790.136719 1073.171875 789.394531 1072.675781 C 788.652344 1072.179688 787.933594 1071.648438 787.242188 1071.082031 C 786.554688 1070.515625 785.890625 1069.917969 785.261719 1069.285156 C 784.628906 1068.652344 784.03125 1067.992188 783.464844 1067.300781 C 782.898438 1066.609375 782.363281 1065.894531 781.867188 1065.152344 C 781.371094 1064.410156 780.914062 1063.644531 780.492188 1062.855469 C 780.070312 1062.070312 779.691406 1061.261719 779.347656 1060.4375 C 779.007812 1059.613281 778.707031 1058.769531 778.445312 1057.917969 C 778.1875 1057.0625 777.972656 1056.195312 777.796875 1055.320312 C 777.621094 1054.445312 777.492188 1053.5625 777.402344 1052.671875 C 777.316406 1051.785156 777.273438 1050.894531 777.273438 1050 C 777.273438 1049.105469 777.316406 1048.214844 777.402344 1047.328125 C 777.492188 1046.4375 777.621094 1045.554688 777.796875 1044.679688 C 777.972656 1043.804688 778.1875 1042.9375 778.445312 1042.082031 C 778.707031 1041.226562 779.007812 1040.386719 779.347656 1039.5625 C 779.691406 1038.738281 780.070312 1037.929688 780.492188 1037.144531 C 780.914062 1036.355469 781.371094 1035.589844 781.867188 1034.847656 C 782.363281 1034.105469 782.898438 1033.390625 783.464844 1032.699219 C 784.03125 1032.007812 784.628906 1031.347656 785.261719 1030.714844 C 785.890625 1030.082031 786.554688 1029.484375 787.242188 1028.917969 C 787.933594 1028.351562 788.652344 1027.820312 789.394531 1027.324219 C 790.136719 1026.828125 790.902344 1026.367188 791.6875 1025.949219 C 792.476562 1025.527344 793.285156 1025.144531 794.109375 1024.804688 C 794.933594 1024.460938 795.773438 1024.160156 796.628906 1023.902344 C 797.484375 1023.640625 798.347656 1023.425781 799.226562 1023.25 C 800.101562 1023.078125 800.984375 1022.945312 801.871094 1022.859375 C 802.761719 1022.769531 803.652344 1022.726562 804.546875 1022.726562 L 1131.816406 1022.726562 C 1132.710938 1022.726562 1133.601562 1022.769531 1134.492188 1022.859375 C 1135.378906 1022.945312 1136.261719 1023.078125 1137.136719 1023.25 C 1138.015625 1023.425781 1138.878906 1023.640625 1139.734375 1023.902344 C 1140.589844 1024.160156 1141.429688 1024.460938 1142.253906 1024.804688 C 1143.078125 1025.144531 1143.886719 1025.527344 1144.675781 1025.949219 C 1145.460938 1026.367188 1146.226562 1026.828125 1146.96875 1027.324219 C 1147.710938 1027.820312 1148.429688 1028.351562 1149.121094 1028.917969 C 1149.808594 1029.484375 1150.472656 1030.082031 1151.101562 1030.714844 C 1151.734375 1031.347656 1152.332031 1032.007812 1152.898438 1032.699219 C 1153.464844 1033.390625 1154 1034.105469 1154.496094 1034.847656 C 1154.992188 1035.589844 1155.449219 1036.355469 1155.871094 1037.144531 C 1156.292969 1037.929688 1156.671875 1038.738281 1157.015625 1039.5625 C 1157.355469 1040.386719 1157.65625 1041.226562 1157.917969 1042.082031 C 1158.175781 1042.9375 1158.390625 1043.804688 1158.566406 1044.679688 C 1158.742188 1045.554688 1158.871094 1046.4375 1158.960938 1047.328125 C 1159.046875 1048.214844 1159.089844 1049.105469 1159.089844 1050 C 1159.089844 1050.894531 1159.046875 1051.785156 1158.960938 1052.671875 C 1158.871094 1053.5625 1158.742188 1054.445312 1158.566406 1055.320312 C 1158.390625 1056.195312 1158.175781 1057.0625 1157.917969 1057.917969 C 1157.65625 1058.769531 1157.355469 1059.613281 1157.015625 1060.4375 C 1156.671875 1061.261719 1156.292969 1062.070312 1155.871094 1062.855469 C 1155.449219 1063.644531 1154.992188 1064.410156 1154.496094 1065.152344 C 1154 1065.894531 1153.464844 1066.609375 1152.898438 1067.300781 C 1152.332031 1067.992188 1151.734375 1068.652344 1151.101562 1069.285156 C 1150.472656 1069.917969 1149.808594 1070.515625 1149.121094 1071.082031 C 1148.429688 1071.648438 1147.710938 1072.179688 1146.96875 1072.675781 C 1146.226562 1073.171875 1145.460938 1073.632812 1144.675781 1074.050781 C 1143.886719 1074.472656 1143.078125 1074.855469 1142.253906 1075.195312 C 1141.429688 1075.539062 1140.589844 1075.839844 1139.734375 1076.097656 C 1138.878906 1076.359375 1138.015625 1076.574219 1137.136719 1076.75 C 1136.261719 1076.921875 1135.378906 1077.054688 1134.492188 1077.140625 C 1133.601562 1077.230469 1132.710938 1077.273438 1131.816406 1077.273438 Z M 1131.816406 1077.273438 " fill-opacity="1" fill-rule="nonzero"/><path fill="#cc434c" d="M 586.363281 1240.910156 L 231.816406 1240.910156 C 230.480469 1240.90625 229.140625 1240.875 227.804688 1240.804688 C 226.46875 1240.738281 225.132812 1240.640625 223.800781 1240.507812 C 222.46875 1240.375 221.140625 1240.210938 219.816406 1240.011719 C 218.492188 1239.8125 217.175781 1239.585938 215.863281 1239.320312 C 214.550781 1239.058594 213.246094 1238.765625 211.945312 1238.4375 C 210.648438 1238.113281 209.359375 1237.753906 208.078125 1237.367188 C 206.796875 1236.976562 205.527344 1236.554688 204.265625 1236.105469 C 203.007812 1235.652344 201.757812 1235.171875 200.523438 1234.65625 C 199.285156 1234.144531 198.0625 1233.601562 196.851562 1233.027344 C 195.640625 1232.457031 194.449219 1231.851562 193.265625 1231.222656 C 192.085938 1230.589844 190.921875 1229.929688 189.773438 1229.242188 C 188.625 1228.550781 187.496094 1227.835938 186.382812 1227.09375 C 185.269531 1226.347656 184.175781 1225.578125 183.101562 1224.78125 C 182.027344 1223.980469 180.972656 1223.160156 179.9375 1222.308594 C 178.902344 1221.460938 177.890625 1220.585938 176.898438 1219.6875 C 175.90625 1218.789062 174.9375 1217.867188 173.988281 1216.917969 C 173.042969 1215.972656 172.121094 1215.003906 171.222656 1214.011719 C 170.324219 1213.019531 169.449219 1212.007812 168.597656 1210.972656 C 167.75 1209.9375 166.925781 1208.882812 166.128906 1207.808594 C 165.332031 1206.730469 164.558594 1205.636719 163.816406 1204.527344 C 163.074219 1203.414062 162.355469 1202.28125 161.667969 1201.132812 C 160.980469 1199.988281 160.320312 1198.824219 159.6875 1197.640625 C 159.054688 1196.460938 158.453125 1195.265625 157.878906 1194.058594 C 157.308594 1192.847656 156.765625 1191.625 156.25 1190.386719 C 155.738281 1189.152344 155.257812 1187.902344 154.804688 1186.644531 C 154.351562 1185.382812 153.933594 1184.113281 153.542969 1182.832031 C 153.152344 1181.550781 152.796875 1180.261719 152.46875 1178.964844 C 152.144531 1177.664062 151.847656 1176.359375 151.585938 1175.046875 C 151.324219 1173.734375 151.09375 1172.414062 150.898438 1171.089844 C 150.699219 1169.769531 150.535156 1168.441406 150.402344 1167.109375 C 150.269531 1165.777344 150.167969 1164.441406 150.101562 1163.105469 C 150.035156 1161.765625 150 1160.429688 150 1159.089844 L 150 777.273438 C 150 776.378906 150.042969 775.488281 150.132812 774.597656 C 150.21875 773.710938 150.351562 772.828125 150.523438 771.953125 C 150.699219 771.074219 150.914062 770.210938 151.175781 769.355469 C 151.433594 768.5 151.734375 767.660156 152.074219 766.835938 C 152.417969 766.011719 152.800781 765.203125 153.21875 764.417969 C 153.640625 763.628906 154.101562 762.863281 154.597656 762.121094 C 155.09375 761.378906 155.625 760.660156 156.191406 759.972656 C 156.757812 759.28125 157.355469 758.621094 157.988281 757.988281 C 158.621094 757.355469 159.28125 756.757812 159.972656 756.191406 C 160.660156 755.625 161.378906 755.09375 162.121094 754.597656 C 162.863281 754.101562 163.628906 753.640625 164.417969 753.21875 C 165.203125 752.800781 166.011719 752.417969 166.835938 752.074219 C 167.660156 751.734375 168.5 751.433594 169.355469 751.175781 C 170.210938 750.914062 171.074219 750.699219 171.953125 750.523438 C 172.828125 750.351562 173.710938 750.21875 174.597656 750.132812 C 175.488281 750.042969 176.378906 750 177.273438 750 C 178.164062 750 179.058594 750.042969 179.945312 750.132812 C 180.835938 750.21875 181.71875 750.351562 182.59375 750.523438 C 183.46875 750.699219 184.335938 750.914062 185.191406 751.175781 C 186.042969 751.433594 186.882812 751.734375 187.710938 752.074219 C 188.535156 752.417969 189.339844 752.800781 190.128906 753.21875 C 190.917969 753.640625 191.683594 754.101562 192.425781 754.597656 C 193.167969 755.09375 193.882812 755.625 194.574219 756.191406 C 195.265625 756.757812 195.925781 757.355469 196.558594 757.988281 C 197.1875 758.621094 197.789062 759.28125 198.355469 759.972656 C 198.921875 760.660156 199.453125 761.378906 199.949219 762.121094 C 200.445312 762.863281 200.902344 763.628906 201.324219 764.417969 C 201.746094 765.203125 202.128906 766.011719 202.46875 766.835938 C 202.8125 767.660156 203.113281 768.5 203.371094 769.355469 C 203.628906 770.210938 203.847656 771.074219 204.019531 771.953125 C 204.195312 772.828125 204.328125 773.710938 204.414062 774.597656 C 204.5 775.488281 204.546875 776.378906 204.546875 777.273438 L 204.546875 1159.089844 C 204.546875 1159.984375 204.589844 1160.875 204.679688 1161.761719 C 204.765625 1162.652344 204.898438 1163.535156 205.074219 1164.410156 C 205.246094 1165.285156 205.464844 1166.152344 205.722656 1167.003906 C 205.984375 1167.859375 206.285156 1168.699219 206.625 1169.523438 C 206.96875 1170.351562 207.351562 1171.15625 207.769531 1171.945312 C 208.191406 1172.730469 208.652344 1173.496094 209.148438 1174.238281 C 209.644531 1174.980469 210.175781 1175.699219 210.742188 1176.386719 C 211.308594 1177.078125 211.90625 1177.738281 212.539062 1178.371094 C 213.171875 1179 213.832031 1179.601562 214.523438 1180.167969 C 215.210938 1180.734375 215.929688 1181.265625 216.671875 1181.761719 C 217.414062 1182.257812 218.179688 1182.714844 218.964844 1183.136719 C 219.753906 1183.558594 220.558594 1183.941406 221.382812 1184.28125 C 222.210938 1184.625 223.050781 1184.925781 223.902344 1185.183594 C 224.757812 1185.445312 225.621094 1185.660156 226.5 1185.835938 C 227.375 1186.011719 228.257812 1186.140625 229.144531 1186.230469 C 230.035156 1186.320312 230.925781 1186.363281 231.816406 1186.363281 L 586.363281 1186.363281 C 587.257812 1186.363281 588.148438 1186.40625 589.035156 1186.496094 C 589.925781 1186.582031 590.808594 1186.714844 591.683594 1186.886719 C 592.558594 1187.0625 593.425781 1187.277344 594.28125 1187.539062 C 595.136719 1187.796875 595.976562 1188.097656 596.800781 1188.4375 C 597.625 1188.78125 598.433594 1189.164062 599.21875 1189.582031 C 600.007812 1190.003906 600.773438 1190.464844 601.515625 1190.960938 C 602.257812 1191.457031 602.976562 1191.988281 603.664062 1192.554688 C 604.355469 1193.121094 605.015625 1193.71875 605.648438 1194.351562 C 606.28125 1194.984375 606.878906 1195.644531 607.445312 1196.335938 C 608.011719 1197.023438 608.542969 1197.742188 609.039062 1198.484375 C 609.535156 1199.226562 609.996094 1199.992188 610.414062 1200.78125 C 610.835938 1201.566406 611.21875 1202.375 611.558594 1203.199219 C 611.902344 1204.023438 612.203125 1204.863281 612.460938 1205.71875 C 612.722656 1206.574219 612.9375 1207.4375 613.113281 1208.316406 C 613.285156 1209.191406 613.417969 1210.074219 613.503906 1210.964844 C 613.59375 1211.851562 613.636719 1212.742188 613.636719 1213.636719 C 613.636719 1214.53125 613.59375 1215.421875 613.503906 1216.308594 C 613.417969 1217.199219 613.285156 1218.082031 613.113281 1218.957031 C 612.9375 1219.832031 612.722656 1220.699219 612.460938 1221.554688 C 612.203125 1222.40625 611.902344 1223.246094 611.558594 1224.074219 C 611.21875 1224.898438 610.835938 1225.703125 610.414062 1226.492188 C 609.996094 1227.28125 609.535156 1228.046875 609.039062 1228.789062 C 608.542969 1229.53125 608.011719 1230.246094 607.445312 1230.9375 C 606.878906 1231.628906 606.28125 1232.289062 605.648438 1232.921875 C 605.015625 1233.550781 604.355469 1234.152344 603.664062 1234.71875 C 602.976562 1235.285156 602.257812 1235.816406 601.515625 1236.3125 C 600.773438 1236.808594 600.007812 1237.265625 599.21875 1237.6875 C 598.433594 1238.109375 597.625 1238.492188 596.800781 1238.832031 C 595.976562 1239.175781 595.136719 1239.476562 594.28125 1239.734375 C 593.425781 1239.992188 592.558594 1240.210938 591.683594 1240.386719 C 590.808594 1240.558594 589.925781 1240.691406 589.035156 1240.777344 C 588.148438 1240.863281 587.257812 1240.910156 586.363281 1240.910156 Z M 586.363281 1240.910156 " fill-opacity="1" fill-rule="nonzero"/><path fill="#cfd3e8" d="M 968.183594 1350 C 961.933594 1349.992188 955.691406 1349.832031 949.453125 1349.519531 C 943.214844 1349.207031 936.988281 1348.742188 930.769531 1348.121094 C 924.554688 1347.503906 918.355469 1346.734375 912.179688 1345.8125 C 906 1344.890625 899.847656 1343.816406 893.722656 1342.59375 C 887.597656 1341.367188 881.503906 1339.996094 875.445312 1338.472656 C 869.386719 1336.949219 863.371094 1335.28125 857.394531 1333.460938 C 851.417969 1331.644531 845.488281 1329.683594 839.609375 1327.574219 C 833.726562 1325.464844 827.902344 1323.214844 822.132812 1320.820312 C 816.363281 1318.425781 810.65625 1315.894531 805.007812 1313.21875 C 799.363281 1310.546875 793.785156 1307.734375 788.277344 1304.789062 C 782.769531 1301.839844 777.339844 1298.761719 771.980469 1295.546875 C 766.625 1292.335938 761.347656 1288.992188 756.15625 1285.519531 C 750.964844 1282.046875 745.859375 1278.449219 740.839844 1274.730469 C 735.824219 1271.007812 730.902344 1267.164062 726.074219 1263.199219 C 721.246094 1259.234375 716.515625 1255.15625 711.890625 1250.960938 C 707.261719 1246.765625 702.738281 1242.460938 698.320312 1238.042969 C 693.902344 1233.625 689.597656 1229.101562 685.402344 1224.472656 C 681.207031 1219.847656 677.125 1215.117188 673.164062 1210.289062 C 669.199219 1205.460938 665.355469 1200.539062 661.632812 1195.523438 C 657.914062 1190.503906 654.316406 1185.398438 650.84375 1180.207031 C 647.371094 1175.015625 644.027344 1169.738281 640.816406 1164.382812 C 637.601562 1159.023438 634.519531 1153.59375 631.574219 1148.085938 C 628.628906 1142.578125 625.816406 1137 623.144531 1131.355469 C 620.46875 1125.707031 617.9375 1120 615.542969 1114.230469 C 613.148438 1108.460938 610.898438 1102.636719 608.789062 1096.753906 C 606.679688 1090.875 604.71875 1084.945312 602.902344 1078.96875 C 601.082031 1072.992188 599.414062 1066.976562 597.890625 1060.917969 C 596.367188 1054.859375 594.996094 1048.765625 593.769531 1042.640625 C 592.546875 1036.515625 591.472656 1030.363281 590.550781 1024.183594 C 589.628906 1018.007812 588.859375 1011.808594 588.242188 1005.59375 C 587.621094 999.375 587.15625 993.148438 586.84375 986.910156 C 586.53125 980.671875 586.371094 974.429688 586.363281 968.183594 C 586.363281 967.289062 586.40625 966.398438 586.496094 965.507812 C 586.582031 964.621094 586.714844 963.738281 586.886719 962.859375 C 587.0625 961.984375 587.277344 961.121094 587.539062 960.265625 C 587.796875 959.410156 588.097656 958.570312 588.441406 957.746094 C 588.78125 956.917969 589.164062 956.113281 589.582031 955.324219 C 590.003906 954.539062 590.464844 953.773438 590.960938 953.03125 C 591.457031 952.285156 591.988281 951.570312 592.554688 950.878906 C 593.121094 950.191406 593.71875 949.527344 594.351562 948.898438 C 594.984375 948.265625 595.644531 947.667969 596.335938 947.097656 C 597.023438 946.53125 597.742188 946 598.484375 945.503906 C 599.226562 945.007812 599.992188 944.550781 600.78125 944.128906 C 601.566406 943.707031 602.375 943.328125 603.199219 942.984375 C 604.023438 942.644531 604.863281 942.34375 605.71875 942.082031 C 606.574219 941.824219 607.441406 941.605469 608.316406 941.433594 C 609.191406 941.257812 610.074219 941.128906 610.964844 941.039062 C 611.851562 940.953125 612.742188 940.910156 613.636719 940.910156 C 614.53125 940.910156 615.421875 940.953125 616.308594 941.039062 C 617.199219 941.128906 618.082031 941.257812 618.957031 941.433594 C 619.832031 941.605469 620.699219 941.824219 621.554688 942.082031 C 622.40625 942.34375 623.246094 942.644531 624.074219 942.984375 C 624.898438 943.328125 625.703125 943.707031 626.492188 944.128906 C 627.28125 944.550781 628.046875 945.007812 628.789062 945.503906 C 629.53125 946 630.246094 946.53125 630.9375 947.097656 C 631.628906 947.667969 632.289062 948.265625 632.921875 948.898438 C 633.550781 949.527344 634.152344 950.191406 634.71875 950.878906 C 635.285156 951.570312 635.816406 952.285156 636.3125 953.03125 C 636.808594 953.773438 637.269531 954.539062 637.6875 955.324219 C 638.109375 956.113281 638.492188 956.917969 638.832031 957.746094 C 639.175781 958.570312 639.476562 959.410156 639.734375 960.265625 C 639.992188 961.121094 640.210938 961.984375 640.386719 962.859375 C 640.558594 963.738281 640.691406 964.621094 640.777344 965.507812 C 640.867188 966.398438 640.910156 967.289062 640.910156 968.183594 C 640.914062 973.535156 641.050781 978.886719 641.320312 984.234375 C 641.589844 989.582031 641.988281 994.921875 642.515625 1000.25 C 643.046875 1005.578125 643.707031 1010.890625 644.496094 1016.183594 C 645.289062 1021.480469 646.207031 1026.753906 647.257812 1032.003906 C 648.304688 1037.253906 649.484375 1042.476562 650.789062 1047.671875 C 652.09375 1052.863281 653.523438 1058.019531 655.082031 1063.144531 C 656.640625 1068.265625 658.320312 1073.347656 660.128906 1078.390625 C 661.9375 1083.429688 663.863281 1088.421875 665.917969 1093.367188 C 667.96875 1098.3125 670.140625 1103.207031 672.433594 1108.046875 C 674.722656 1112.886719 677.132812 1117.664062 679.660156 1122.386719 C 682.183594 1127.105469 684.824219 1131.765625 687.578125 1136.355469 C 690.332031 1140.949219 693.199219 1145.46875 696.175781 1149.921875 C 699.148438 1154.371094 702.234375 1158.746094 705.425781 1163.046875 C 708.613281 1167.347656 711.910156 1171.566406 715.304688 1175.707031 C 718.703125 1179.84375 722.199219 1183.898438 725.796875 1187.863281 C 729.390625 1191.832031 733.082031 1195.707031 736.871094 1199.492188 C 740.65625 1203.28125 744.53125 1206.972656 748.5 1210.566406 C 752.464844 1214.164062 756.519531 1217.660156 760.65625 1221.058594 C 764.796875 1224.453125 769.015625 1227.75 773.316406 1230.9375 C 777.617188 1234.128906 781.992188 1237.214844 786.441406 1240.1875 C 790.894531 1243.164062 795.414062 1246.03125 800.007812 1248.785156 C 804.597656 1251.539062 809.257812 1254.179688 813.976562 1256.707031 C 818.699219 1259.230469 823.476562 1261.640625 828.316406 1263.929688 C 833.15625 1266.222656 838.050781 1268.394531 842.996094 1270.445312 C 847.941406 1272.5 852.933594 1274.429688 857.972656 1276.234375 C 863.015625 1278.042969 868.097656 1279.722656 873.21875 1281.28125 C 878.34375 1282.839844 883.5 1284.269531 888.691406 1285.574219 C 893.886719 1286.882812 899.109375 1288.058594 904.359375 1289.105469 C 909.609375 1290.15625 914.882812 1291.074219 920.179688 1291.867188 C 925.472656 1292.65625 930.785156 1293.316406 936.113281 1293.847656 C 941.441406 1294.375 946.78125 1294.773438 952.128906 1295.042969 C 957.476562 1295.3125 962.828125 1295.449219 968.183594 1295.453125 C 969.074219 1295.453125 969.964844 1295.5 970.855469 1295.585938 C 971.742188 1295.671875 972.625 1295.804688 973.503906 1295.976562 C 974.378906 1296.152344 975.242188 1296.371094 976.097656 1296.628906 C 976.953125 1296.886719 977.792969 1297.1875 978.617188 1297.53125 C 979.445312 1297.871094 980.25 1298.253906 981.039062 1298.675781 C 981.824219 1299.097656 982.589844 1299.554688 983.332031 1300.050781 C 984.078125 1300.546875 984.792969 1301.078125 985.484375 1301.644531 C 986.175781 1302.210938 986.835938 1302.8125 987.464844 1303.441406 C 988.097656 1304.074219 988.695312 1304.734375 989.265625 1305.425781 C 989.832031 1306.117188 990.363281 1306.832031 990.859375 1307.574219 C 991.355469 1308.316406 991.8125 1309.082031 992.234375 1309.871094 C 992.65625 1310.660156 993.035156 1311.464844 993.378906 1312.289062 C 993.71875 1313.117188 994.019531 1313.957031 994.28125 1314.808594 C 994.539062 1315.664062 994.757812 1316.53125 994.929688 1317.40625 C 995.105469 1318.28125 995.234375 1319.164062 995.324219 1320.054688 C 995.410156 1320.941406 995.453125 1321.832031 995.453125 1322.726562 C 995.453125 1323.621094 995.410156 1324.511719 995.324219 1325.398438 C 995.234375 1326.289062 995.105469 1327.171875 994.929688 1328.046875 C 994.757812 1328.921875 994.539062 1329.789062 994.28125 1330.644531 C 994.019531 1331.5 993.71875 1332.339844 993.378906 1333.164062 C 993.035156 1333.988281 992.65625 1334.796875 992.234375 1335.582031 C 991.8125 1336.371094 991.355469 1337.136719 990.859375 1337.878906 C 990.363281 1338.621094 989.832031 1339.339844 989.265625 1340.027344 C 988.695312 1340.71875 988.097656 1341.378906 987.464844 1342.011719 C 986.835938 1342.644531 986.175781 1343.242188 985.484375 1343.808594 C 984.792969 1344.375 984.078125 1344.90625 983.332031 1345.402344 C 982.589844 1345.898438 981.824219 1346.359375 981.039062 1346.78125 C 980.25 1347.199219 979.445312 1347.582031 978.617188 1347.921875 C 977.792969 1348.265625 976.953125 1348.566406 976.097656 1348.824219 C 975.242188 1349.085938 974.378906 1349.300781 973.503906 1349.476562 C 972.625 1349.648438 971.742188 1349.78125 970.855469 1349.867188 C 969.964844 1349.957031 969.074219 1350 968.183594 1350 Z M 968.183594 1350 " fill-opacity="1" fill-rule="nonzero"/></svg>