<?xml version="1.0" encoding="UTF-8"?>
<svg id="Layer_1" data-name="Layer 1" xmlns="http://www.w3.org/2000/svg" viewBox="0 0 300 100">
  <rect width="300" height="100" rx="20" ry="20" fill="rgba(255, 255, 255, .8)"/>
  <rect x="28" y="25" width="50" height="50" rx="8" ry="8" fill="#4cafe6"/>
  <g id="sprout">
    <path d="M56.375,45.842v-4.28c0-3.728,3.022-6.75,6.75-6.75h2.531c.466,0,.844.378.844.844v2.531c0,3.728-3.022,6.75-6.75,6.75s-6.75,3.022-6.75,6.75c0,3.375,1.688,5.062,1.688,8.438,0,1.826-.592,3.602-1.688,5.062" fill="none" stroke="#f7fff4" stroke-linecap="round" stroke-linejoin="round" stroke-width="2"/>
    <path d="M39.5,44.938c3.728-2.796,9.017-2.04,11.812,1.688,1.095,1.46,1.688,3.237,1.688,5.062-3.728,2.796-9.017,2.04-11.812-1.688-1.095-1.46-1.688-3.237-1.688-5.062" fill="none" stroke="#f7fff4" stroke-linecap="round" stroke-linejoin="round" stroke-width="2"/>
    <path d="M41.188,65.188h23.625" fill="none" stroke="#f7fff4" stroke-linecap="round" stroke-linejoin="round" stroke-width="2"/>
  </g>
  <text transform="translate(100.622 42.77)" fill="#21506c" font-family="Poppins-SemiBold, Poppins" font-size="21" font-weight="600"><tspan x="0" y="0">Tumbuh Cerdas</tspan><tspan x="0" y="30">dan Berkarakter</tspan></text>
</svg>